<?xml version="1.0" encoding="UTF-8"?>
<svg id="_圖層_4" data-name="圖層 4" xmlns="http://www.w3.org/2000/svg" viewBox="0 0 100 100">
  <defs>
    <style>
      .cls-1 {
        fill: #e6c12f;
      }
    </style>
  </defs>
  <path class="cls-1" d="M63.71,36.21h18.67c.05,0,.09.14.15.15.27.06.33.05.61.15.74.27,1.43.66,1.9,1.3.11.14.71,1.2.76,1.37.03.13-.03.32,0,.46.01.06.14.1.15.15.06.38.06,1.45,0,1.83,0,.06-.14.09-.15.15-.13.64-.27,1.39-.61,1.98-.91,1.6-2.07,3.09-3.05,4.57-7.41,11.25-14.79,22.45-22.25,33.67-2.61,3.93-4.77,8.02-8.76,11.05s-9.16,4.51-14.17,3.5c-2.53-.51-4.54-1.79-5.87-4.04-.47-.8-.59-1.12-.76-1.98-.01-.06-.14-.1-.15-.15-.09-.58-.07-2.3,0-2.9.07-.56.33-1.49.46-2.13,1.68-8.2,3.58-16.41,5.03-24.68.01-.06.24-.14.15-.38h-18.21c-.05,0-.09-.14-.15-.15-.19-.03-.43.04-.61,0-.06-.01-.09-.13-.15-.15-.18-.05-.42-.05-.61-.15-.41-.36-.94-.67-1.3-1.14-.02-.03.03-.12,0-.15-.16-.23-.53-.64-.61-.91-.03-.13.03-.32,0-.46-.01-.06-.14-.1-.15-.15-.05-.35-.05-1.32,0-1.68.07-.47.46-1.18.61-1.68,4.4-14.62,8.86-29.27,13.41-43.88.4-1.29.68-2.89,1.22-4.11.15-.34.95-1.34,1.3-1.6.03-.02.12.03.15,0,.26-.19.59-.49.91-.61.38-.14.92-.07,1.22-.3h38.7c.17.27.5.1.76.15.06.01.09.13.15.15.1.03.22-.03.3,0,.23.09.42.33.61.46.62.43,1.45,1.16,1.75,1.9.03.08-.03.21,0,.3.02.06.14.09.15.15.04.18-.03.42,0,.61.01.06.15.1.15.15.03.24.03.68,0,.91,0,.06-.14.09-.15.15-.06.32-.08.47-.15.76-.33,1.27-.9,2.35-1.37,3.5-3.2,7.79-6.53,15.47-9.75,23.31-.05.13-.27.36-.3.53ZM65.54,11.22h-29.56l-12.49,40.99h17.29c.05,0,.09.14.15.15.33.06.73.03,1.07.15.36.13.73.52,1.07.61,1.09.98,1.79,2.54,1.6,4.04,0,.06-.14.09-.15.15-1.83,10.29-4.22,20.35-6.09,30.63-.01.06-.13.09-.15.15v.3c.34.47.83.31,1.3.38.06,0,.09.14.15.15.25.06,1.64-.24,1.98-.3,3.16-.63,5.26-2.2,7.24-4.8,2.95-3.87,5.52-8.25,8.23-12.34,5.84-8.84,11.84-17.53,17.52-26.51.13-.21.4-.4.46-.69h-17.14c-.05,0-.1-.15-.15-.15-.29-.04-.64.05-.91,0-.17-.03-.62-.38-.91-.3-.93-.57-1.44-1.03-1.9-2.06-.03-.06-.13-.09-.15-.15-.05-.13.08-.33-.15-.46v-1.98c.58-1.6,1.33-3.17,1.98-4.72,3.11-7.47,6.34-15.05,9.45-22.55.04-.1.43-.57.3-.69Z"/>
</svg>