<?xml version="1.0" encoding="UTF-8"?>
<svg id="_圖層_6" data-name="圖層 6" xmlns="http://www.w3.org/2000/svg" viewBox="0 0 141.73 141.73">
  <defs>
    <style>
      .cls-1 {
        fill: #b47320;
      }

      .cls-2 {
        fill: #f1e14d;
      }

      .cls-3 {
        fill: #c59112;
      }

      .cls-4 {
        fill: #f5d746;
      }

      .cls-5 {
        fill: #f4e75d;
      }

      .cls-6 {
        fill: #f3ef81;
      }

      .cls-7 {
        fill: #f5ea61;
      }

      .cls-8 {
        fill: #f3ca37;
      }

      .cls-9 {
        fill: #c18c16;
      }

      .cls-10 {
        fill: #f2e971;
      }

      .cls-11 {
        fill: #af6e21;
      }

      .cls-12 {
        fill: #f5e458;
      }

      .cls-13 {
        fill: #f5d340;
      }

      .cls-14 {
        fill: #b47520;
      }

      .cls-15 {
        fill: #f4f09f;
      }

      .cls-16 {
        fill: #f5df4f;
      }
    </style>
  </defs>
  <path class="cls-9" d="M89.48,128.9c-.45-.87-1.47-.29-2.12-.13-11.83,2.99-19.76,2.92-31.64.42-.65-.14-1.71-.69-2.14.15-15.16-4.06-29.1-14.91-35.54-29.4-1.27-2.87-2.05-7.03-3.38-9.48-.67-1.23-1.91-1.94-2.68-3.09-3.14-4.71-3.92-19.97-1.05-24.84.96-1.63,3-2.68,3.67-4.31,2.56-6.2,2.84-11.98,6.54-18.73C44.36-2.84,106.42,1.31,123.82,46.47c1.46,3.8,1.98,9.73,3.12,12.4.34.81,2.76,2.51,3.51,3.58,3.37,4.82,2.6,21.02-1.33,25.66-.73.86-1.74,1.11-2.36,2.08-1.17,1.82-2.04,6.46-3.08,8.89-6.05,14.17-19.61,25.38-34.21,29.84ZM89.92,20.75l-3.55-1.99c-13.82-4.57-29.24-2.87-41.43,5.1l-2.89,2.65c-.18.13-.48.57-.89.89-1.74,1.35-2.89,2.45-4.43,3.99s-3.58,3.21-4.43,5.32c-.14.16-.31.28-.44.44-1.34,1.6-4.82,8.42-5.32,8.42-.04,0-.21-.42-.43-.45-1.19,4.25-5.63,12.7-3.3,16.82,2.28,4.02,12.68,6.45,17.03,7.13.14.02.3-.02.44,0,4.61,1.8,10.16,2.15,15.07,2.22.15.01.3-.01.44,0,1.68.44,4.24.83,5.97.9,10.91.48,24.69.27,35.26-2.23.5-.12,1.28.12,1.77,0,.3-.07.61-.37.89-.44,4.53-.5,9.05-2.14,13.29-3.78.24-.09,1.87-.71.9-1.1.89-.46,2.35-1.52,3.1-2.22.35-.33.55-.34.89-.89,1.8-2.93.44-6.24-.44-9.31.85-.39.2-1.42.01-2-1.03-3.24-2.84-6.69-4.55-9.64-.14-.25-.83-2.13-1.22-1.21-4.38-6.79-13.82-16.28-21.72-18.62ZM18.11,68.18c-.27,0-.68-.06-.89,0-.3.08-.95-.25-.89.27.12,4.62-.6,12.09,3.11,15.49.64.58,1.02.45,1.33.65.56.35,1.7,1.06,2.22,1.33-1.1.42.41.64.75.8,3.3,1.58,7.25,3.33,10.77,4.31.68.19,1.78.59,2.22-.23,3.47.86,7.51,1.92,10.5,2.65,1.08.26,3.11-.04,4.26.45.15.06.87,1.8,1.64,2.67-.03.09-.45.13-.44.22.05.39,1.65,1.05,1.32,2-1.36,1.17-20.45-2.99-23.39-3.86-1.72-.51-3.08-1.45-4.68-2-.68-.24-.57-.52-1.18.1-.71.73.06,1.79.37,2.52,1.05,2.5,2.53,5,4.06,7.24,3.49,5.09,8.08,9.13,13.3,12.41l.44.44-.45.43c15.62,8.99,35.28,10.86,51.83,2.41l3.59-2.84c.3-.18.99-.11,1.45-.42.5-.34,1.43-1.76,2.1-2.24.69-.42,1.98-.91,2.66-1.33,1.86-1.14,3.15-2.28,4.66-3.98.22-.25,1.51-1.55.66-1.78,2.24-2.49,3.75-5.05,5.32-7.98l2.21-4.22-.44-.66-11.07,3.34c-2.4.05-4.89,1.16-7.1,1.54-3.72.64-7.57.68-11.3,1.34l-.23-.89v-.44c.57-.3,1.22-.91,1.77-1.33.03-.02.25.52.63.04.56-.7.69-2,1.59-2.47,1.34-.69,3.95-.54,5.75-1.12,2.27-.74,4.82-1.07,7.09-2.22,4.61-.48,8.96-2.11,13.17-3.89l3.67-3.2c.21-.13.53-.22.89-.44.4-.25,1.02-.59,1.33-.89,3.69-3.57,1.74-9.74,2.22-14.4-.59-.7-.43.34-.45.66-.64-1.67-3.66.29-4.76.76-3.14,1.34-5.11,1.76-8.54,2.78-9.53,2.86-17.82,4.55-27.92,5.32-.68-1.64-2.47-.46-3.75-.42-6.61.17-13.18-.09-19.74-.46-3.5-.2-6.94-.7-10.41-.92-.84-.05-1.78-.15-2.44.47-.15-.02-.3.02-.44,0,.26-1.32-.64-.81-1.46-.95-5.18-.9-10.77-1.63-15.82-3.04-2.87-.8-8.87-3.92-11.08-3.99Z"/>
  <path class="cls-14" d="M89.48,128.9c-11.89,3.63-23.92,3.65-35.9.44.43-.84,1.49-.29,2.14-.15,11.88,2.5,19.81,2.57,31.64-.42.65-.16,1.67-.74,2.12.13Z"/>
  <path class="cls-8" d="M57.12,100.09c.15,0,.3,0,.44,0,3.74,0,7.73.44,11.3.44h8.42c1.23,0,5.44-1,6.43-.89.19.02.4.69.56.74,1.9.51,8.75-.46,11.13-.8,6.82-.98,13.63-2.7,20.01-5.25l-.67,3.54c-1.57,2.93-3.08,5.49-5.32,7.98-1.62,1.8-4.46,3.35-5.32,5.76-.68.42-1.97.91-2.66,1.33-18.09,10.95-38.32,13.84-57.33,2.59-.3-.18-1.51-1.15-1.62-.37-5.22-3.28-9.81-7.32-13.3-12.41.13-1.6-4.62-7.29-3.54-8.42,6.33,2.25,13.1,4.28,19.77,5.27,3.97.59,7.85.5,11.69.49Z"/>
  <path class="cls-13" d="M19,82.36l-.84-3.81-.48-6.82c2.35.17,4.26,1.47,6.42,2.22,26.86,9.39,68.52,10.34,94.94-.82,1.59-.67,2.84-2.03,4.58-1.85v6.43c0,.47-.77,2.03-.79,2.76l-1.43,2.78c-.36.23-.67.31-.89.44-5.89,3.6-11.42,4.36-16.84,7.09-2.27,1.14-4.82,1.48-7.09,2.22-1.06-.53-5.67.02-6.34.43-.49.3-.79,2.53-1.64,3.12-.55.42-1.21,1.03-1.77,1.33-1.06.56-2.56.57-3.1,1.77-.99-.12-5.2.89-6.43.89h-8.42c-3.57,0-7.56-.44-11.3-.44-1.66-1.15-3.05-2-4.43-3.55.02-.07.42-.14.26-.43l-1.69-3.26c-10.15-1.57-20.86-2.94-29.64-8.47-.46-.29-1.18-.17-1.29-.25-.1-.07-1.68-1.64-1.77-1.77ZM84.16,95.66c1.74-.87,3.54-1.78,3.56-4.2.05-4.66-3.86-6.16-7.76-6.45-4.25-.32-18.49-.52-21.96.69-5.22,1.82-5.34,8.72.09,10.55,5.13,1.73,17.07,1.27,22.68.7,1.91-.2,2.14-.65,3.38-1.27Z"/>
  <path class="cls-12" d="M124.5,68.62c-.19,4.72.35,9.31-1.77,13.74-.3.29-.93.63-1.33.89l1.43-2.78c.02-.73.79-2.29.79-2.76v-6.43c-1.74-.18-2.99,1.18-4.58,1.85-26.41,11.15-68.07,10.21-94.94.82-2.16-.75-4.07-2.05-6.42-2.22l.48,6.82.84,3.81c-2.69-3.72-1.51-9.83-1.77-14.18.2-.06.62,0,.89,0,3.17,1.93,6.69,2.89,10.19,3.99-.25,1.18.59.88,1.32,1.09,21.75,6.43,58.97,7.38,80.6.36,1.08-.35,1.12-.02.96-1.46,3.43-1.03,5.39-1.44,8.54-2.78,1.1-.47,4.12-2.43,4.76-.76Z"/>
  <path class="cls-10" d="M29.2,72.61c5.59,1.63,11.51,2.75,17.29,3.55.15.02.3-.02.44,0,4.22.56,8.61,1.06,12.85,1.33,2.25.14,5.75.44,7.76.44h8.87c1.66,0,4.96-.3,6.87-.44,10.1-.77,18.4-2.46,27.92-5.32.16,1.44.12,1.11-.96,1.46-21.64,7.02-58.85,6.07-80.6-.36-.73-.22-1.57.09-1.32-1.09.3.09.6.36.89.44Z"/>
  <path class="cls-14" d="M97.9,115.61l-3.59,2.84c-16.54,8.45-36.21,6.58-51.83-2.41l.45-.43c17.56,9.81,37.54,10.38,54.96,0Z"/>
  <path class="cls-14" d="M97.01,69.51v.44c-10.56,2.51-24.35,2.72-35.26,2.23-1.73-.08-4.28-.46-5.97-.9,7.01.6,14.37.28,21.28,0,7.17-.29,12.95-1.08,19.95-1.77Z"/>
  <path class="cls-2" d="M20.77,84.13c.11.08.83-.04,1.29.25,8.78,5.53,19.49,6.9,29.64,8.47l1.69,3.26c.15.29-.24.36-.26.43-.78-.87-1.49-2.6-1.64-2.67-1.14-.49-3.17-.18-4.26-.45-2.99-.73-7.03-1.79-10.5-2.65-4.72-1.17-9.42-2.6-13.74-4.88-.52-.27-1.66-.98-2.22-1.33v-.44Z"/>
  <path class="cls-14" d="M24.76,93c.61-.62.51-.34,1.18-.1,1.6.55,2.95,1.49,4.68,2,2.94.87,22.04,5.03,23.39,3.86.33-.94-1.27-1.6-1.32-2-.01-.08.41-.13.44-.22,1.38,1.55,2.77,2.39,4.43,3.55-.15,0-.3,0-.44,0-11-1.18-22.25-2.34-32.36-7.09ZM54.68,98.76v.44c.29-.15.29-.3,0-.44Z"/>
  <path class="cls-1" d="M83.27,77.49c-1.91.15-5.21.44-6.87.44h-8.87c-2.01,0-5.5-.3-7.76-.44v-.89c6.56.37,13.14.64,19.74.46,1.28-.03,3.07-1.22,3.75.42Z"/>
  <path class="cls-1" d="M29.2,72.17c5.05,1.41,10.64,2.13,15.82,3.04.83.14,1.72-.37,1.46.95-5.78-.79-11.69-1.91-17.29-3.55v-.44Z"/>
  <path class="cls-2" d="M120.51,83.69l-3.67,3.2c-4.21,1.79-8.56,3.41-13.17,3.89,5.43-2.74,10.95-3.5,16.84-7.09Z"/>
  <path class="cls-14" d="M17.23,68.18c.26,4.35-.91,10.47,1.77,14.18.1.13,1.67,1.7,1.77,1.77v.44c-.31-.19-.69-.06-1.33-.65-3.71-3.4-2.99-10.87-3.11-15.49-.05-.51.6-.18.89-.27Z"/>
  <path class="cls-1" d="M48.7,69.95c1.96.23,4.67,1.15,6.65,1.33-4.92-.06-10.46-.41-15.07-2.22,2.76.43,5.65.56,8.42.89Z"/>
  <path class="cls-11" d="M98.34,97.88v.44c-4.38.76-8.82,1.54-13.3,1.33l1.77-1.33.23.89c3.72-.66,7.57-.69,11.3-1.34Z"/>
  <path class="cls-11" d="M59.78,76.6v.89c-4.24-.27-8.64-.77-12.85-1.33.66-.62,1.6-.52,2.44-.47,3.47.21,6.91.72,10.41.92Z"/>
  <path class="cls-11" d="M122.72,82.36c2.12-4.43,1.59-9.02,1.77-13.74.01-.33-.14-1.37.45-.66-.48,4.66,1.47,10.84-2.22,14.4Z"/>
  <path class="cls-1" d="M113.86,64.63c.98.39-.65,1.01-.9,1.1-4.24,1.64-8.76,3.28-13.29,3.78,4.29-1.13,10.13-2.79,14.18-4.88Z"/>
  <path class="cls-11" d="M104.11,111.62c.86-2.41,3.7-3.96,5.32-5.76.85.24-.44,1.53-.66,1.78-1.51,1.7-2.8,2.83-4.66,3.98Z"/>
  <path class="cls-2" d="M114.74,97.88l.67-3.54c-6.39,2.55-13.19,4.27-20.01,5.25-2.38.34-9.23,1.31-11.13.8-.15-.04-.37-.71-.56-.74.54-1.21,2.04-1.21,3.1-1.77v.44l-1.77,1.33c4.47.22,8.91-.57,13.3-1.33,6.15-1.07,12.6-2.5,18.17-5.32l.44.66-2.21,4.22Z"/>
  <path class="cls-1" d="M96.57,93c-1.8.58-4.41.43-5.75,1.12-.91.47-1.03,1.77-1.59,2.47-.38.47-.61-.06-.63-.04.85-.58,1.15-2.81,1.64-3.12.67-.41,5.28-.96,6.34-.43Z"/>
  <path class="cls-1" d="M116.52,93c-5.58,2.82-12.02,4.25-18.17,5.32v-.44c2.22-.38,4.7-1.49,7.1-1.54l11.07-3.34Z"/>
  <path class="cls-2" d="M57.12,100.09c-3.85,0-7.73.09-11.69-.49-6.68-.99-13.45-3.01-19.77-5.27-1.08,1.13,3.68,6.82,3.54,8.42-1.53-2.23-3.02-4.73-4.06-7.24-.31-.73-1.08-1.79-.37-2.52,10.11,4.75,21.36,5.91,32.36,7.09Z"/>
  <path class="cls-11" d="M36.73,90.78c-.44.82-1.54.42-2.22.23-3.52-.98-7.47-2.72-10.77-4.31-.33-.16-1.84-.38-.75-.8,4.32,2.28,9.02,3.71,13.74,4.88Z"/>
  <path class="cls-11" d="M29.2,72.17v.44c-.29-.09-.59-.35-.89-.44-3.51-1.1-7.02-2.06-10.19-3.99,2.21.06,8.21,3.19,11.08,3.99Z"/>
  <path class="cls-2" d="M101.45,112.95c-.67.48-1.6,1.9-2.1,2.24-.45.31-1.14.24-1.45.42-17.42,10.38-37.41,9.81-54.96,0l-.44-.44c.11-.77,1.32.19,1.62.37,19.01,11.25,39.24,8.36,57.33-2.59Z"/>
  <path class="cls-1" d="M98.79,69.95c-.49.12-1.27-.12-1.77,0v-.44c.56-.06,1.49-.17,1.77.44Z"/>
  <path class="cls-5" d="M84.16,95.66c2.6-1.07,3.24-4.16,2.46-6.67-.79-2.54-3.75-2.89-6.01-3.08-5.33-.44-12.04-.08-17.51,0-.75,0-1.97-.28-2.43.45-3.07.25-6.09,1.43-5.74,5.07.37,3.81,4.75,4.75,7.95,4.68.46.73,1.68.44,2.43.45,4.33.05,15.29.57,18.84-.89-1.24.62-1.47,1.08-3.38,1.27-5.61.57-17.56,1.03-22.68-.7-5.43-1.83-5.31-8.73-.09-10.55,3.47-1.21,17.71-1.01,21.96-.69,3.89.29,7.8,1.79,7.76,6.45-.02,2.42-1.82,3.33-3.56,4.2Z"/>
  <path class="cls-9" d="M54.68,98.76c.29.15.29.3,0,.44v-.44Z"/>
  <path class="cls-9" d="M60.67,86.35c5.11-.42,14.91-.51,19.95,0,.57.06,3.37.63,3.82.84,2.35,1.05,2.35,5.93.15,7.34-2.92,1.86-14.78,1.07-18.83,1.11-1,0-1.91.44-2.86.46-3.2.07-7.58-.87-7.95-4.68-.35-3.64,2.67-4.82,5.74-5.07Z"/>
  <path class="cls-14" d="M84.16,95.66c-3.55,1.47-14.51.94-18.84.89-.75,0-1.97.28-2.43-.45.95-.02,1.87-.45,2.86-.46,4.06-.04,15.92.75,18.83-1.11,2.21-1.41,2.21-6.29-.15-7.34-.45-.2-3.25-.78-3.82-.84v-.44c2.26.19,5.22.53,6.01,3.08.78,2.51.13,5.6-2.46,6.67Z"/>
  <path class="cls-11" d="M80.61,85.91v.44c-5.04-.51-14.84-.42-19.95,0,.46-.74,1.68-.44,2.43-.45,5.47-.07,12.19-.43,17.51,0Z"/>
  <g>
    <path class="cls-4" d="M117.85,59.76c-.06.48-.51,1.56,0,1.77-.34.55-.54.56-.89.89l-9.21,3.86c-11.75,3.59-24.16,4.78-36.44,4.56-7.74-.41-14.78-.28-22.61-1.33-3.64-.49-7.52-1.11-11.08-1.99-2.81-.7-12.45-3.53-13.73-5.89-.87-1.61-.12-2.47-.01-3.65,2.63-.01,4.32-2,6.98-2.55,4-.84,6.24.2,9.65.25,5.77.08,11.59-.31,17.27-.38,2.43-.03,5.5.49,7.58.41,1.16-.04,1.83-1.28,2.63-1.27.59,0,1.12.78,1.79.87,5.06.69,9.7-.36,14.61-.43,5.84-.08,11.86.67,17.73.93,1.04.04,2.02-.58,3.07-.48,1.15.11,1.88,1.3,2.69,1.32s1.51-.94,2.63-.87c.44.03,3.07,1.1,3.52,1.39,1.54.99,1.63,3.06,3.83,2.6Z"/>
    <path class="cls-7" d="M41.16,27.4c1.45.31,3.28-2.3,4.31-2.59.97-.27,1.94.32,3.14.11,1.84-.32,5.2-2.08,7.52-2.71,11.44-3.14,24.47-2.71,35.42,2.01,3.33,1.43,3.64,2.15,7.37,2.89,2.28.46,8.65,7.52,10.24,9.64,2.28,3.05,4.6,6.88,5.58,10.6-3.25-1.01-1.51-.76-3.56-2.42-3.78-3.08-6.14-1.93-10.34-2.52-6.43-.9-16.65-2.06-23.13-1.28-4.74.58-8.08.46-12.84.5-4.36.03-10.87.51-15.29,1.29v-.89c3.22.87,7.04-.95,7.54-4.43.55-3.92-1.67-7.7-5.97-7.55-1.6.05-2.18.86-3.34,1.35-.03.01-.46-.5-.44,0-.11.5-.56.62-.89.89-.57.48-2.36,2.61-2.53,2.64-1.37.27-3.71-.04-5.1.47-.55.2-.56.98-1.04,1.27-.92.56-1.98.32-2.84.73-.97.46-3.38,3.79-3.12-.24.13-.16.31-.29.44-.44.93-1.08,2.07-2.03,3.1-3.01l1.34-2.31c1.55-1.54,2.69-2.64,4.43-3.99Z"/>
    <path class="cls-5" d="M49.59,42.03v.89c-.26.05-.74.67-1.2.77-1.25.28-2.44-.24-3.45.56-2.26,1.81.63,5.45-4.22,7.97.13-.07,1.83-2.03,1.96-2.25,2.77-4.9-3.39-10.15-7.72-6.82-.87.67-.6,1.05-.89,1.54-.31.53-.95.79-.89,1.77-1.02,4.19,3.96,7.68,7.54,5.76-.09.05-.21.65-.74.79-5.47,1.51-8.66-4.03-7.24-8.77l-1.94-.03-.99,1.78-2.35-.4c-1.4,3.62-2.94,7.2-3.58,11.06-.02.14.02.3,0,.44-.04.28.03.6,0,.89-.11,1.18-.86,2.04.01,3.65,1.27,2.36,10.91,5.19,13.73,5.89,3.57.88,7.44,1.5,11.08,1.99v.44c-2.77-.33-5.67-.46-8.42-.89-.14-.02-.3.02-.44,0-4.21-2.34-16.02-3.12-16.8-9.13-.6-4.58,2.24-10.05,3.51-14.37.5,0,3.98-6.82,5.32-8.42-.26,4.03,2.15.7,3.12.24.86-.41,1.92-.17,2.84-.73.48-.29.48-1.07,1.04-1.27,1.39-.51,3.73-.2,5.1-.47.18-.04,1.96-2.16,2.53-2.64-2.6,3.59-1.35,8.54,3.1,9.75Z"/>
    <path class="cls-6" d="M88.59,20.31c.44.12.88.31,1.33.44,7.9,2.34,17.33,11.82,21.72,18.62,1.89,2.93,2.73,5.26,3.99,8.42v.44c-.26-.22-.62-.8-.89-.89-.98-3.72-3.3-7.55-5.58-10.6-1.58-2.11-7.96-9.18-10.24-9.64-3.73-.75-4.04-1.46-7.37-2.89-10.95-4.71-23.98-5.15-35.42-2.01-2.32.64-5.68,2.39-7.52,2.71-1.19.21-2.17-.38-3.14-.11-1.03.29-2.87,2.9-4.31,2.59.41-.32.71-.76.89-.89,2.63-1.91,8.09-5.21,11.08-6.21,11.06-3.67,24.24-3.18,35.46,0Z"/>
    <path class="cls-5" d="M116.96,62.42c-.75.7-2.22,1.76-3.1,2.22-4.06,2.08-9.9,3.74-14.18,4.88-.28.07-.59.37-.89.44-.28-.61-1.22-.5-1.77-.44-7,.69-12.77,1.48-19.95,1.77-1.55-.09-3.14.13-4.69.02-.57-.04-1.01-.46-1.07-.46,12.28.22,24.69-.97,36.44-4.56l9.21-3.86Z"/>
    <path class="cls-1" d="M42.05,26.51l2.89-2.65c12.19-7.96,27.62-9.66,41.43-5.1l3.55,1.99c-.45-.13-.89-.32-1.33-.44-11.12-4.39-24.33-4.33-35.46,0-2.99.99-8.46,4.3-11.08,6.21Z"/>
    <path class="cls-2" d="M71.31,70.84c.06,0,.5.42,1.07.46,1.55.11,3.14-.11,4.69-.02-6.91.28-14.26.6-21.28,0-.15-.01-.3.01-.44,0-1.98-.18-4.69-1.1-6.65-1.33v-.44c7.83,1.05,14.86.92,22.61,1.33Z"/>
    <path class="cls-14" d="M26.54,45.57c-1.27,4.31-4.1,9.78-3.51,14.37.78,6.01,12.59,6.78,16.8,9.13-4.35-.68-14.75-3.11-17.03-7.13-2.33-4.11,2.11-12.57,3.3-16.82.22.03.39.45.43.45Z"/>
    <path class="cls-7" d="M117.4,52.22c.88,3.07,2.24,6.38.44,9.31-.51-.21-.06-1.29,0-1.77.48-3.87-1.33-7.71-2.22-11.52v-.44c.61,1.52,1.29,2.74,1.77,4.43Z"/>
    <path class="cls-11" d="M117.4,52.22c-.48-1.69-1.16-2.91-1.77-4.43-1.26-3.16-2.1-5.49-3.99-8.42.4-.92,1.08.97,1.22,1.21,1.71,2.95,3.52,6.4,4.55,9.64.18.58.84,1.61-.01,2Z"/>
    <path class="cls-5" d="M36.73,31.39l-1.34,2.31c-1.03.98-2.17,1.94-3.1,3.01.85-2.11,2.89-3.79,4.43-5.32Z"/>
    <path class="cls-16" d="M114.74,47.34c.27.08.63.67.89.89.89,3.81,2.7,7.66,2.22,11.52-2.2.46-2.29-1.61-3.83-2.6-.45-.29-3.07-1.36-3.52-1.39-1.12-.07-1.83.89-2.63.87s-1.54-1.2-2.69-1.32c-1.05-.1-2.03.53-3.07.48-5.87-.25-11.89-1.01-17.73-.93-4.91.07-9.55,1.12-14.61.43-.68-.09-1.21-.86-1.79-.87-.8-.01-1.47,1.23-2.63,1.27-2.08.08-5.15-.44-7.58-.41-5.68.07-11.5.46-17.27.38-3.41-.05-5.65-1.09-9.65-.25-2.65.56-4.35,2.54-6.98,2.55.03-.29-.04-.6,0-.89l.43-.22-.43-.22c.64-3.86,2.18-7.44,3.58-11.06l2.35.4.99-1.78,1.94.03c-1.42,4.74,1.77,10.28,7.24,8.77.53-.15.64-.75.74-.79,4.85-2.52,1.96-6.16,4.22-7.97,1-.81,2.19-.29,3.45-.56.46-.1.94-.73,1.2-.77,4.43-.78,10.93-1.25,15.29-1.29,4.76-.04,8.1.08,12.84-.5,6.47-.79,16.7.38,23.13,1.28,4.2.59,6.56-.56,10.34,2.52,2.05,1.67.31,1.41,3.56,2.42Z"/>
    <path class="cls-14" d="M47.81,31.83c-5.95,5.07,1.82,13.27,7.08,8.63.17-.15,1.75-2.7,1.79-2.87h.44c-.49,3.48-4.32,5.31-7.54,4.43-4.45-1.21-5.7-6.17-3.1-9.75.32-.27.78-.39.89-.89h.44v.44Z"/>
    <path class="cls-1" d="M57.12,37.59h-.44c.19-.79-.08-2.59-.37-3.39-.21-.58-.74-.58-.82-.74-.28-.54.08-1.31-.4-1.69-1.52-1.18-5.6-1.05-7.27.05v-.44c1.17-.49,1.74-1.3,3.34-1.35,4.3-.14,6.52,3.64,5.97,7.55Z"/>
    <path class="cls-5" d="M47.81,31.39h-.44c-.02-.5.41.01.44,0Z"/>
    <path class="cls-9" d="M33.19,46.46c-.07-.98.57-1.24.89-1.77,1.41-.38,1.49-1.61,3.32-1.8,7.86-.82,6.64,11.61-1.35,8.48-1.67-.65-2.74-3.3-2.85-4.91Z"/>
    <path class="cls-1" d="M40.72,52.22c-3.58,1.91-8.56-1.57-7.54-5.76.11,1.61,1.18,4.25,2.85,4.91,8,3.13,9.21-9.3,1.35-8.48-1.83.19-1.91,1.42-3.32,1.8.29-.49.02-.87.89-1.54,4.33-3.32,10.49,1.92,7.72,6.82-.13.22-1.83,2.18-1.96,2.25Z"/>
    <path class="cls-4" d="M23.88,57.1c.02-.15-.02-.3,0-.44l.43.22-.43.22Z"/>
    <path class="cls-15" d="M88.59,20.31c-11.22-3.18-24.4-3.67-35.46,0,11.13-4.33,24.34-4.39,35.46,0Z"/>
    <path class="cls-3" d="M47.81,31.83c1.67-1.11,5.75-1.23,7.27-.05.48.37.12,1.15.4,1.69.08.16.61.16.82.74.29.8.56,2.6.37,3.39-.04.16-1.62,2.72-1.79,2.87-5.26,4.64-13.03-3.56-7.08-8.63Z"/>
  </g>
</svg>