<?xml version="1.0" encoding="UTF-8"?>
<svg id="_圖層_5" data-name="圖層 5" xmlns="http://www.w3.org/2000/svg" viewBox="0 0 141.73 141.73">
  <defs>
    <style>
      .cls-1 {
        fill: #a96822;
      }

      .cls-2 {
        fill: #af6f21;
      }

      .cls-3 {
        fill: #f4e04e;
      }

      .cls-4 {
        fill: #b67c1d;
      }

      .cls-5 {
        fill: #f2ea66;
      }

      .cls-6 {
        fill: #f4d945;
      }

      .cls-7 {
        fill: #f1e85a;
      }

      .cls-8 {
        fill: #efe353;
      }

      .cls-9 {
        fill: #f5db47;
      }

      .cls-10 {
        fill: #b17420;
      }

      .cls-11 {
        fill: #bf8b18;
      }

      .cls-12 {
        fill: #f4e150;
      }
    </style>
  </defs>
  <path class="cls-2" d="M130.3,97.56c-3.93,4.12-24.74,7.14-31.08,7.94-22.25,2.81-46.38,2.21-68.44-1.88-2.61-.48-5.54-.93-7.92-2.06,3.83.77,7.77,1.58,11.62,2.18,24.92,3.88,51.42,4.13,76.23-.54,6.67-1.25,13.44-2.78,19.59-5.63Z"/>
  <path class="cls-8" d="M96.91,97.19c6.32.63,12.85.42,19.24.36.6,0,1.21.03,1.81,0,.4-.02.91.11,1.09-.36,3.72-.13,7.49-1.29,10.82-1.37.89-.02,1.11.07,1.16,1.01-.13.16-.5.49-.73.73-6.16,2.86-12.93,4.38-19.59,5.63-24.81,4.67-51.32,4.41-76.23.54v-.73c23.05,3.81,46.69,4.11,69.82.67,6.33-.94,20.09-3.22,25.29-6.31.47-.28.92.07.72-.9-11.11,1.68-22.66,2.69-33.89,1.4-3.49-.4-8.41-1.13-11.12-3.22v-.36c3.36,2.1,7.73,2.52,11.62,2.9Z"/>
  <path class="cls-7" d="M80.94,91.39c1.09.02,2.18-.02,3.27,0,0,.82-.07,1.69.24,2.47.28.69.69.34.84.43v.36c-.18-.14-.59.01-1.04-.57s-.72-2.28-.99-2.36c-8.39.82-16.91.21-25.35.38-.36.06-.12,1.23-.39,1.82-1.13,2.5-9.77,3.74-12.34,3.99-11.2,1.12-22.48.06-33.57-1.45l2.22,1.59c6.68,2.42,13.65,3.78,20.65,4.94v.73c-3.85-.6-7.79-1.41-11.62-2.18-.12-.02-.25.02-.36,0-3.71-1.87-8.35-1.99-11.62-4.72.08-.4.36-.69.36-.73,4.92-.14,9.79,1.21,14.69,1.47,7.19.38,23.47.56,29.6-2.73,2.14-1.15,2.01-.91,1.45-3.45,7.98.12,15.98-.16,23.96,0Z"/>
  <path class="cls-2" d="M22.5,101.55c-3.22-.64-8.62-1.75-11.23-3.83-1.07-.85-.42-.72-.38-.88,3.27,2.72,7.91,2.85,11.62,4.72Z"/>
  <g>
    <path class="cls-11" d="M132.12,82.31l.53,5.82c6.06,2.35,13.33,7.11,6.01,13.24-10.06,8.43-40.68,11.49-53.89,12.17-20.61,1.06-60.41-.29-78.48-10.12-11.38-6.19-5.52-11.89,3.51-15.57l.37-5.54c-10.19-.95-7.1-6.13-3.06-11.95,3.63-5.21,8.42-10.9,12.67-15.64.76-.85,3.73-3.37,4-3.98.35-.78-1.78-2.76.53-5.29,3.04-3.32,13.75-3.35,17.26-.89.43.3,1.53,1.44,1.72,1.91,1.06,2.57-2.06,3.98,1.53,5.71,3.19-3.6,6.3-7.22,9.81-10.53.79-.75,4.9-3.87,5.11-4.36.66-1.55-2.93-4.99,2.02-7.75,4.47-2.49,15.26-2.78,19.38.5,3.84,3.07.73,6.3,1.43,7.62.26.48,3.97,3.26,4.75,3.99,3.43,3.24,6.54,6.79,9.86,10.13,3.12-.37,1.26-3.82,2.33-5.9,2.01-3.87,15.28-3.75,18.29-.96,2.33,2.16.47,4.49,1.07,5.8.27.58,2.29,2.2,2.92,2.91,4.62,5.25,9.25,10.8,13.18,16.59,4.02,5.92,7.56,10.72-2.84,12.09ZM68.96,32.95c-.45.5-1,.95-1.45,1.45l-.34-.36c-1.03,1.35.22,3.95-.06,4.83-.26.83-2.12.71-2.14,2.06-.09.05-.2.26-.36.36-2.8,1.76-3.47,3.27-5.44,5.44-.12.13-.25.24-.36.36-.66.74-1.91,1.46-2.53,2.36l.36.18c-1.2,1.33-2.38,2.71-3.63,3.99l-.36-.37c-.06.22.06.6,0,.73-.08.15-.27.24-.36.36-.1.13-.25.24-.36.36s-.25.24-.36.36c-1.15,1.25-3.3,2.13-.36,3.63.08.11.24.23.36.36.21,1.27,1.59,1.96,2.36,2.9l.18-.36c1.4,1.44,2.64,3.05,4.23,4.32.6.1,3.43-2.25,3.4-3.23.82-.56.5,3.81,2.06,4.29,3.5,1.07,5.62-3.15,6.52-3.13,1.03.42,1.76,1.39,2.66,2.11.39.31.34.75,1.24,1.12,3.77,1.55,3.97.13,5.26-2.79.09-.21-.03-.81.57-.5,1.15.59,2.13,4.67,4.54,1.99l1.45-2.36c2-2.18,3.75-4.59,6.01-6.54l.03-.72c-.86-1.43-2.19-2.43-3.3-3.63-3.37-3.66-7.19-7.82-10.89-11.25-.62-.58-2.68-1.79-2.91-2.17-.61-1,.16-1.52.18-1.81.35,1.01.65-.91.64-1.02-.21-3.79-2.9-4.38-6.27-4.06l-.73.36c-.12.13.2.36.19.37ZM40.65,56.18c-.34-1.04-3.18-3.06-3.45-3.62-.81-1.64.9-3.81-1.66-5.24-1.3-.73-2.67-.75-4.04-.18-.1.04-1.59,1.41-1.63,1.51-.64,1.64.72,3.81-1.56,5.35-.13.11-.24.25-.36.36-1.66.65-3.2,2.47-3.99,3.99-.23.21-.44.46-.73.73-.59.53-1.32.96-1.81,1.64l.36.18c-1.99,2.25-10.51,12.04-11.08,14.15-.9,3.3,2.53,2.41,4.45,1.55.8-.36,1.05-.97,1.55-1.54l.7.02c.14.63.1,1.76.38,2.28.25.45.64.17.73.24.14.1.28.34.36.36,2.34.79,2.76.23,4.36-1.45.21-.22.64-.61.73-.73.1-.13.27-.22.36-.36.07-.1-.06-.51,0-.73,2.04,0,1.36,3.45,2.72,3.99.53-1.07,1.79-1,2.9-1.82.91-.67,1.47-1.68,2.18-2.53,1.16,1.85,2.78,2.87,4.9,3.26-.27,1.29,1.65.7,2.18.54l1.99-3.09c1.07,2.06,3.41,3.61,5.83,3.3.85-.11.44-.68.52-.76.05-.05.53.16.71-.27.27-.64.27-1.89.38-2.64l2.17,1.09c.14.09.23.28.36.36.11.08.22.47.58.68,2.79,1.62,7.08,1,4.5-2.85-3.33-4.99-10.75-12.13-15.09-16.69-.38-.4-.44-1.02-.52-1.1ZM113.61,53.27c-1.2-2.02.11-2.32-.7-4.2-1.26-2.92-5.41-3.16-6.88-.29-.7,1.38-.19,2.27-.42,3.5-.07.37-1.7.9-1.07,1.35-.14.1-.7.76-1.09,1.09l-2.36,1.46-1.27,1.8c-.12.12-.24.24-.36.36-.39.13-.52.43-.73.73-2.92,4.14-7.34,7.87-10.53,11.98l-1.61,1.47c-.68,1.27-1.82,2.81-1.11,4.33.54,1.14,1.13.38,1.27.37,3.03-.21,5.04-1.36,7.08-3.63.32,1.07.06,3.57,1.26,4.18,1.51.77,2.51-.66,3.63-.92.04,0,.41.53.67.34s1.19-2.8,1.87-2.16l1.52,3.56c1.18.69,4.91-2,5.01-3.56.94-.2,1.52,1.3,2.65,1.89.18.1,2.39.65,2.61.66,3.15.23,1.9-1.15,3.64-2.91,1.3,1.76,5.62,4.41,7.08,1.81.29-.51,0-.35,0-.36.05-.2-.05-.51,0-.73,1.55-.84,1.89.52,3,1.18,3.67,2.18,6.84,1.07,4.62-3.36-.41-.06-.33.37-.36.36-.97-.16-10.67-13.29-12.34-15.25-.4-.47-.82-.78-1.09-1.09-.11-.13-.25-.23-.36-.36-1.31-1.54-1.45-2.45-3.63-3.63ZM62.06,71.42c-.05.12-.36.27-.36.36-.04,1.03.58,1.81.69,2.75.17,1.39.01,4.25-1.06,5.23-2.7,2.47-8.19-.7-5.39,6.48,1.77-.17,8.65.59,9.67-.4.78-2.74.1-5.88.55-8.71.22-1.41.33-1.88,1.72-2.46,1.94.08,3.7-.47,5.44-.36l2.49,1.32.83,10.61,8.43.07c.45-.09.15-.56.23-.74.4-1.01.55-1.97.39-3.1-.09-.64-.69-.68-.75-.9,0-.02.33-.19.37-.36-3.23-.3-6.19-.99-6.14-4.87.02-1.53.93-2.86,1.27-4.19.12-.47.35-.53-.22-.75-.08-.03-.23.01-.36,0-.38-.61-.98-.68-1.63-.73-5.03-.4-10.55.33-15.64-.02l-.48.08c-.15.21.02.55-.04.67ZM49,81.59c-.08-.26.18-.76-.19-.73l-31.59.34-.49.08c-.15.21.02.54-.04.67-.09.21-.32.36-.36.73-.29,2.69.22,5.81,0,8.55l.37.52c.09.05.25-.04.36,0v.73c.6.03,1.21-.03,1.81,0,.12,0,.24,0,.36,0s.24,0,.36,0c2.21.76,5.52,1.03,7.82.74.35-.04.85.12.89-.38v-5.81c1.15.27.49-1.14,1.31-1.41.39-.13,3.65-.42,4.31-.43,1.11-.02,2.12.24,3.2.39,1.47,2.43-.33,5.62,1.42,7.91l9.18-.64-.91-.36c.54-.09,1.32-.69,2.18-.36l.32-.21.4-9.41-.36.19c0-.06-.28-.79-.36-1.09ZM92.92,81.59c-.89.88-.93,7.83-.75,9.29.07.55.17.53.38.87.69,1.12,3.92,1.35,5.27,1.45s5.74.42,6.35-.72c.33-.62-.1-4.23,0-5.44,1.16.26.46-1.1,1.32-1.4,1.96-.69,7.22-.88,8.48,1.04.38,1.53.04,3.99.13,5.63l.48.46c.95.05,1.89.46,2.84.47.76,0,3.63-.25,4.29-.4.27-.06.21-.62.51-.7.52-.14,2.33.02,2.6-.43s-.32-1.74.41-2.13c.01.46-.3,1.83.36,1.81-.23-2.83.32-6.14.02-8.91-.04-.35.1-.86-.38-.89-.24.02-.49-.02-.73,0h-31.58ZM56.98,91.39c-.69,1.79.23,2.27-1.68,3.22-5.36,2.68-20.25,2.88-26.47,2.6-6.01-.27-11.96-1.63-17.95-1.83-.14.08.37.61.36.72,0,.04-.28.33-.36.73-.03.16-.68.04.38.88,2.61,2.08,8.02,3.2,11.23,3.83.12.02.25-.02.36,0,2.38,1.13,5.31,1.58,7.92,2.06,22.06,4.09,46.2,4.69,68.44,1.88,6.35-.8,27.15-3.82,31.08-7.94.22-.23.59-.57.73-.73.8-.97-.55-1.47-1.63-1.49-3.56-.05-9.21,1.63-13.26,1.85-5.79.32-13.51.28-19.24-.36-3.82-.43-7.97-1.26-11.44-2.89l-.18.35c-.15-.1-.56.26-.84-.43-.32-.78-.25-1.66-.24-2.47-1.09-.01-2.18.02-3.27,0l3.26-.72-27.18.05c-.16.21.01.53-.04.67Z"/>
    <path class="cls-11" d="M16.69,84.13c.01-.48-.05-.98,0-1.45.03-.24-.02-.49,0-.73h.36c-.05.68.28,1.77-.36,2.18Z"/>
    <polygon class="cls-11" points="92.92 91.75 92.55 91.75 92.92 86.31 92.92 91.75"/>
    <path class="cls-7" d="M124.5,81.59c.24-.02.49.02.73,0,.05,2.65-.07,5.33,0,7.99-.73.38-.14,1.66-.41,2.13s-2.07.29-2.6.43c-.3.08-.24.64-.51.7-.65.15-3.53.41-4.29.4-.95,0-1.89-.41-2.84-.47l-.48-.46c-.09-1.64.26-4.1-.13-5.63-.76-3.03-6.08-1.44-8.46-1.81-.15.62-1.3,1.01-1.34,1.08.11-.18,0-.56.36-.89,1.76-1.63,10.16-1.37,10.16,1.44v5.99l9.8-1.09v-9.07h-30.85l-.32,9.04c3.33.72,6.72.87,10.13.77.13-2.36-.52-4.08.72-6.17-.08.14.02.78,0,1.09-.1,1.21.33,4.82,0,5.44-3.54.73-7.78.13-11.25-.73v-9.8c9.85-.25,19.76.32,29.6.01.76-.02,1.35-.31,1.98-.38Z"/>
    <path class="cls-7" d="M49,81.59c.09.3.36,1.03.36,1.09.07.56-.02,1.22,0,1.81-.67.96-.36,2.74-.36,3.99s0,2.42,0,3.63c-.85-.33-1.64.27-2.18.36-2.73.46-5.59.35-8.35.36v-5.26c0-.3-.56-1.33-.43-1.93-.7-1.16-7.51-.97-9-.43.05-.07-.13-.52.05-.67.94-.77,7.25-.55,8.5.29.28.19,1.25,1.46,1.25,1.65v5.44c0,.16.57.61.87.53l8.34-.69c.15-.04.59-1.2.59-1.29v-8.17h-31.22v9.07l10.17.73c.11-2.38-.49-4.05.72-6.17v6.9c-2.91-.02-5.8-.25-8.71-.36-.12,0-.24,0-.36,0-.07-.15-.21-.32-.36-.36-.58-.15-1.2-.16-1.81-.36-.12-.04-.28.05-.36,0,.06-2.53-.08-5.09,0-7.62.64-.41.31-1.49.36-2.18l31.94-.36Z"/>
    <path class="cls-4" d="M124.5,81.59c-.63.07-1.22.35-1.98.38-9.85.31-19.75-.26-29.6-.01v-.36h31.58Z"/>
    <path class="cls-4" d="M16.69,82.68h-.36c.04-.36.27-.51.36-.73-.02.24.03.49,0,.73Z"/>
    <path class="cls-4" d="M16.69,81.95c.06-.13-.12-.47.04-.67l.49-.08,31.59-.34c.36-.03.11.47.19.73l-31.94.36h-.36Z"/>
    <path class="cls-2" d="M56.98,91.39c.56,2.55.69,2.3-1.45,3.45-6.13,3.29-22.41,3.11-29.6,2.73-4.9-.26-9.77-1.61-14.69-1.47.01-.11-.5-.64-.36-.72,5.99.2,11.95,1.55,17.95,1.83,6.22.28,21.11.09,26.47-2.6,1.91-.96.98-1.43,1.68-3.22Z"/>
    <path class="cls-7" d="M79.85,71.42c.13.01.28-.03.36,0-2.8,4.81-1.62,10.39,4.72,10.16.07.21.66.25.75.9.16,1.13.01,2.09-.39,3.1h-8.71v-8.89c0-1.57-1.92-2.28-3.27-2.36-1.75-.1-3.51.44-5.44.36-.21,0-.83-.51-1.45,0,1.8-1.47,4.71-1.33,7.04-1.05,5.44.66,3.37,7.71,3.85,11.57h7.44l.49-.6.05-2.3c-6.03-.17-8.7-4.7-6.17-10.17l-16.33-.36c2.26,5.78-.18,10.4-6.54,10.53l.37,2.9h7.98c.67-3.22-.47-7.61,1.45-10.16-.65,3.48-.85,6.99-.73,10.53h-9.44l.04-3.59c2.45-.43,3.62-.42,5.41-2.21,2.46-2.46,2.35-5.17.36-7.99,0-.1.31-.25.36-.36,5.67.45,12.23-.6,17.79,0Z"/>
    <path class="cls-4" d="M56.98,91.39c.05-.14-.12-.46.04-.67l27.18-.05-3.26.72c-7.97-.16-15.98.12-23.96,0Z"/>
    <path class="cls-10" d="M67.87,74.69c-1.39.57-1.49,1.05-1.72,2.46-.45,2.83.23,5.97-.55,8.71-1.02.99-7.89.23-9.67.4-2.8-7.19,2.7-4.01,5.39-6.48-1.79,1.79-2.95,1.78-5.41,2.21l-.04,3.59h9.44c-.12-3.54.07-7.05.73-10.53.08-.11.25-.27.36-.36.62-.51,1.24,0,1.45,0Z"/>
    <path class="cls-10" d="M79.85,71.42c-5.56-.6-12.12.45-17.79,0,.06-.12-.11-.47.04-.67l.48-.08c5.09.35,10.6-.38,15.64.02.64.05,1.25.13,1.63.73Z"/>
    <path class="cls-1" d="M116.15,97.19v.36c-6.38.05-12.92.26-19.24-.36v-.36c5.73.64,13.45.68,19.24.36Z"/>
    <path class="cls-10" d="M131.03,96.83c-.04-.94-.26-1.03-1.16-1.01-3.33.08-7.1,1.24-10.82,1.37-.4.01-.91-.11-1.09.36-.6.03-1.21,0-1.81,0v-.36c4.04-.22,9.7-1.9,13.26-1.85,1.08.02,2.43.51,1.63,1.49Z"/>
    <path class="cls-2" d="M73.32,74.33c1.35.08,3.27.79,3.27,2.36v8.89h8.71c-.07.18.22.65-.23.74l-8.43-.07-.83-10.61-2.49-1.32Z"/>
    <path class="cls-2" d="M96.91,96.83v.36c-3.88-.38-8.26-.8-11.62-2.9l.18-.35c3.47,1.63,7.62,2.47,11.44,2.89Z"/>
    <path class="cls-2" d="M104.17,92.48c-.61,1.14-4.96.82-6.35.72s-4.57-.32-5.27-1.45h.36c3.47.85,7.71,1.45,11.25.73Z"/>
    <path class="cls-2" d="M92.92,81.95v4.36l-.36,5.44c-.21-.34-.31-.32-.38-.87-.18-1.47-.14-8.41.75-9.29v.36Z"/>
    <path class="cls-10" d="M29.03,85.22c1.49-.53,8.3-.73,9,.43-.12.6.43,1.62.43,1.93v5.26c2.76-.01,5.62.09,8.35-.36l.91.36-9.18.64c-1.76-2.29.05-5.48-1.42-7.91-1.08-.14-2.09-.41-3.2-.39-.66.01-3.92.3-4.31.43-.82.27-.16,1.68-1.31,1.41v-1.09s.49-.42.73-.73Z"/>
    <path class="cls-2" d="M61.34,79.77c1.07-.98,1.23-3.85,1.06-5.23-.11-.94-.74-1.72-.69-2.75,1.98,2.82,2.1,5.52-.36,7.99Z"/>
    <path class="cls-2" d="M49,92.11c0-1.21,0-2.42,0-3.63.63-.93.41-2.78.36-3.99-.02-.59.07-1.25,0-1.81l.36-.19-.4,9.41-.32.21Z"/>
    <path class="cls-2" d="M113.97,86.67c-1.26-1.91-6.51-1.73-8.48-1.04-.86.3-.16,1.66-1.32,1.4.02-.31-.08-.95,0-1.09.04-.08,1.2-.46,1.34-1.08,2.37.37,7.7-1.22,8.46,1.81Z"/>
    <path class="cls-2" d="M80.21,71.42c.57.23.34.28.22.75-.34,1.32-1.24,2.66-1.27,4.19-.06,3.87,2.91,4.56,6.14,4.87-.04.17-.38.33-.37.36-6.34.23-7.52-5.35-4.72-10.16Z"/>
    <path class="cls-2" d="M28.31,92.84c-.04.5-.53.34-.89.38-2.31.29-5.62.02-7.82-.74,2.91.11,5.8.34,8.71.36Z"/>
    <path class="cls-1" d="M125.22,81.59c.48.02.34.54.38.89.3,2.77-.26,6.08-.02,8.91-.66.02-.35-1.35-.36-1.81-.07-2.65.05-5.33,0-7.99Z"/>
    <path class="cls-1" d="M16.69,84.13c-.08,2.53.06,5.09,0,7.62l-.37-.52c.22-2.75-.28-5.87,0-8.55h.36c-.05.47.01.98,0,1.45Z"/>
    <path class="cls-1" d="M18.87,92.11v.36c-.6-.03-1.21.03-1.82,0v-.73c.62.2,1.24.22,1.82.36Z"/>
    <path class="cls-2" d="M19.23,92.48c-.12,0-.24,0-.36,0v-.36c.16.04.29.21.36.36Z"/>
    <g>
      <path class="cls-3" d="M112.16,52.19c.02.13-.03.26,0,.36.31,1.05,1.38,1.91,2.54,2.18.81.85,1.07.29,2.18,2.18.01.02-.34.07-.05.53.2.31,1.34,1.56,1.5.93h.36c1.67,1.96,11.37,15.08,12.34,15.25.53.9,1.04,1.89.57,2.93l-.44.28c-2.93.57-5.3-.83-6.85-3.21-.16.57-.42,1.24-.54,1.81-.05.22.05.52,0,.73v.36c-1.46,2.6-5.78-.05-7.08-1.81-1.74,1.76-.49,3.14-3.64,2.91-.22-.02-2.43-.57-2.61-.66-1.13-.59-1.71-2.09-2.65-1.89-1.31.28-.62.77-1.29,1.43-.77.76-2.45,1.76-3.55,1.5l-1.87-4.38-2.36,3.27c-1.13.25-2.12,1.68-3.63.92-1.2-.61-.95-3.11-1.26-4.18-2.04,2.27-4.05,3.42-7.08,3.63-1.24.34-.75-2.57-.65-3.01.15-.63,1.6-2.51,2.1-3.16,3.18-4.11,7.61-7.84,10.53-11.98.44-.09.52-.52.73-.73.12-.12.24-.25.36-.36,1.18-1.11,2.4-2.22,3.63-3.27.39-.33.94-.98,1.09-1.09.32-.23.76-.23,1.09-.36.15-.06.27-.23.36-.36.12-.12.21-.27.36-.36.11-.07.51.07.72,0,.31-.39-1.97-4.51,2.03-4.69,1.52-.07,2.81.45,2.99,2.07.09.82-.06,1.29.07,2.26ZM111.52,60.43c.23.24.89.6,1.19.11.81-1.4-.93-4.46-2.37-5.09-.08,1.23.35,4.11,1.18,4.98ZM108.53,55.82c-1.18-.87-3.76,3.72-2.56,4.56,2.83.9,1.78-2.9,2.56-4.56Z"/>
      <path class="cls-10" d="M113.61,53.27c-.41-.23-1.07-.27-1.45-.73-.03-.1.02-.24,0-.36,2.22-6.53-7.87-6.51-5.81.36-.15.09-.24.24-.36.36s-.25.23-.36.36c-.33.13-.76.13-1.09.36-.62-.45,1-.98,1.07-1.35.23-1.24-.28-2.12.42-3.5,1.47-2.87,5.61-2.63,6.88.29.81,1.89-.5,2.18.7,4.2Z"/>
      <path class="cls-2" d="M123.77,75.42c.12-.58.38-1.24.54-1.81,1.54,2.38,3.91,3.78,6.85,3.21l.44-.28c.47-1.04-.04-2.03-.57-2.93.03,0-.05-.42.36-.36,2.22,4.42-.95,5.54-4.62,3.36-1.11-.66-1.44-2.02-3-1.18Z"/>
      <path class="cls-10" d="M98.73,76.87l2.36-3.27,1.87,4.38c1.1.26,2.79-.73,3.55-1.5.67-.66-.02-1.15,1.29-1.43-.1,1.56-3.83,4.25-5.01,3.56l-1.52-3.56c-.68-.64-1.63,1.98-1.87,2.16s-.63-.35-.67-.34Z"/>
      <path class="cls-2" d="M88.2,71.06c-.5.65-1.96,2.53-2.1,3.16-.1.44-.59,3.35.65,3.01-.14,0-.73.77-1.27-.37-.72-1.52.43-3.06,1.11-4.33l1.61-1.47Z"/>
      <path class="cls-5" d="M117.24,56.9c.11.13.25.24.36.36l.73,1.09c-.16.64-1.3-.62-1.5-.93-.3-.46.06-.5.05-.53h.36Z"/>
      <path class="cls-1" d="M103.44,54.73c-1.23,1.04-2.45,2.16-3.63,3.27l1.27-1.8,2.36-1.46Z"/>
      <path class="cls-2" d="M117.24,56.9h-.36c-1.1-1.89-1.36-1.33-2.18-2.18-.32-.33-.85-1.04-1.09-1.45,2.18,1.18,2.32,2.09,3.63,3.63Z"/>
      <path class="cls-2" d="M118.69,58.36h-.36l-.73-1.09c.27.31.69.62,1.09,1.09Z"/>
      <path class="cls-1" d="M98.73,59.08c.21-.3.34-.6.73-.73-.2.21-.29.64-.73.73Z"/>
      <path class="cls-2" d="M123.77,76.5v-.36s.29-.15,0,.36Z"/>
      <path class="cls-4" d="M108.53,55.82c-.78,1.66.27,5.46-2.56,4.56-1.19-.83,1.39-5.42,2.56-4.56Z"/>
      <path class="cls-10" d="M111.52,60.43c-.83-.87-1.25-3.75-1.18-4.98,1.44.64,3.17,3.7,2.37,5.09-.3.49-.96.13-1.19-.11Z"/>
      <path class="cls-5" d="M112.16,52.19c-.13-.97.03-1.44-.07-2.26-.18-1.61-1.47-2.14-2.99-2.07-3.99.18-1.72,4.3-2.03,4.69-.21.07-.61-.07-.72,0-2.06-6.88,8.03-6.9,5.81-.36Z"/>
      <path class="cls-5" d="M113.61,53.27c.24.41.77,1.12,1.09,1.45-1.16-.27-2.23-1.12-2.54-2.18.38.46,1.04.5,1.45.73Z"/>
      <path class="cls-5" d="M105.62,53.27c.11-.13.24-.24.36-.36-.09.13-.22.3-.36.36Z"/>
    </g>
    <path class="cls-9" d="M104.17,85.94c-1.24,2.09-.6,3.81-.72,6.17-3.4.1-6.8-.05-10.13-.77l.32-9.04h30.85v9.07l-9.8,1.09v-5.99c0-2.81-8.4-3.07-10.16-1.44-.36.33-.25.71-.36.89Z"/>
    <path class="cls-9" d="M28.31,85.94c-1.22,2.12-.62,3.79-.72,6.17l-10.17-.73v-9.07h31.22v8.17c0,.1-.43,1.25-.59,1.29l-8.34.69c-.3.08-.87-.37-.87-.53v-5.44c0-.19-.98-1.46-1.25-1.65-1.25-.83-7.55-1.06-8.5-.29-.18.15,0,.6-.05.67-.24.31-.7.68-.73.73Z"/>
    <path class="cls-11" d="M49,88.48c0-1.25-.3-3.04.36-3.99.04,1.21.27,3.07-.36,3.99Z"/>
    <path class="cls-9" d="M66.06,75.05c-1.92,2.54-.78,6.94-1.45,10.17h-7.98s-.37-2.9-.37-2.9c6.36-.13,8.8-4.75,6.54-10.53l16.33.36c-2.53,5.47.14,9.99,6.17,10.17l-.05,2.3-.49.6h-7.44c-.49-3.87,1.59-10.92-3.85-11.57-2.33-.28-5.23-.42-7.04,1.05-.11.09-.28.25-.36.36Z"/>
    <g>
      <path class="cls-12" d="M75.13,37.3c-.02.3-.8.82-.18,1.81.23.38,2.29,1.59,2.91,2.17,3.71,3.43,7.52,7.59,10.89,11.25,1.11,1.2,2.45,2.2,3.3,3.63l-.03.72c-2.25,1.96-4.01,4.36-6.01,6.54-.7.76-2.16,2.78-3.09,2.92l-3.08-3.65c-.6-.42-1.19,2.79-1.37,3.16-1.19,2.42-3.66.61-5.52.1-.9-.72-1.63-1.7-2.66-2.11-.9-.02-3.03,4.21-6.52,3.13-1.56-.48-1.24-4.85-2.06-4.29.02.97-2.8,3.33-3.4,3.23-1.59-1.26-2.82-2.88-4.23-4.32-.84-.86-1.74-1.67-2.54-2.54-.12-.13-.28-.26-.36-.36-.3-.39-1.13-1.21-1.06-1.58l1.43-2.05c.11-.13.25-.24.36-.36l.36-.36c.09-.12.28-.21.36-.36l.36-.36c1.25-1.29,2.43-2.66,3.63-3.99.35-.39.79-.75,1.09-1.09l.18.36c.96-.57,1.18-1.43,1.64-2.17.81-1.3.67-.74,1.45-1.45.46-.41.7-.7,1.09-1.09,1.07-1.06,1.14-1.47,2.54-2.54.54-.41.77-.48,1.45-1.09.3-.27,1.74-1.57,1.78-1.69.27-.91-1.33-3.16-.32-4.48.45-.51,1.01-.95,1.45-1.45,3.92-1.05,6.43.04,6.17,4.36ZM70.05,42.02c-1.89-.26-4.24,4.34-2.93,5.29,2.76.83,2.98-3.37,2.93-5.29ZM72.23,42.02c-.05,1.92.16,6.12,2.93,5.29,1.46-1.06-1.16-5.42-2.93-5.29Z"/>
      <path class="cls-2" d="M72.95,65.98c1.87.51,4.33,2.32,5.52-.1.18-.37.77-3.58,1.37-3.16l3.08,3.65c.93-.14,2.4-2.16,3.09-2.92l-1.45,2.36c-2.41,2.68-3.39-1.4-4.54-1.99-.6-.31-.48.29-.57.5-1.29,2.92-1.49,4.34-5.26,2.79-.9-.37-.85-.81-1.24-1.12Z"/>
      <path class="cls-2" d="M67.51,34.4c-1,1.32.59,3.57.32,4.48-.03.12-1.47,1.42-1.78,1.69-.39.05-.75.17-1.09.36.02-1.35,1.88-1.23,2.14-2.06.28-.88-.97-3.48.06-4.83l.34.36Z"/>
      <path class="cls-2" d="M68.96,32.95s-.31-.24-.19-.37l.73-.36c3.37-.31,6.06.28,6.27,4.06,0,.11-.29,2.03-.64,1.02.26-4.31-2.25-5.4-6.17-4.36Z"/>
      <path class="cls-2" d="M64.61,41.66c-1.4,1.07-1.47,1.48-2.54,2.54l-1.09,1.09c-.79.71-.65.15-1.45,1.45h-.36c1.97-2.18,2.65-3.68,5.44-5.44v.36Z"/>
      <path class="cls-2" d="M51.54,59.08c.8.87,1.7,1.68,2.54,2.54l-.18.36c-.77-.94-2.15-1.63-2.36-2.9Z"/>
      <path class="cls-5" d="M57.71,48.56c.39-.44.73-.98,1.09-1.45.11-.12.25-.23.36-.36h.36c-.46.74-.67,1.61-1.64,2.17l-.18-.36Z"/>
      <path class="cls-2" d="M51.17,58.72c-2.93-1.5-.78-2.38.36-3.63l-1.43,2.05c-.06.37.76,1.19,1.06,1.58Z"/>
      <path class="cls-5" d="M66.06,40.57c-.68.61-.91.68-1.45,1.09v-.36c.17-.1.27-.31.36-.36.34-.19.7-.31,1.09-.36Z"/>
      <path class="cls-2" d="M57.71,48.56c-.3.34-.74.7-1.09,1.09l-.36-.18c.63-.9,1.87-1.62,2.53-2.36-.36.47-.7,1.01-1.09,1.45Z"/>
      <path class="cls-2" d="M52.99,53.64l-.36.36c.07-.13-.05-.51,0-.73l.36.37Z"/>
      <path class="cls-2" d="M51.9,54.73c.12-.12.26-.24.36-.36l-.36.36Z"/>
      <path class="cls-4" d="M70.05,42.02c.05,1.92-.16,6.12-2.93,5.29-1.32-.94,1.04-5.55,2.93-5.29Z"/>
      <path class="cls-4" d="M72.23,42.02c1.77-.13,4.39,4.23,2.93,5.29-2.76.83-2.98-3.37-2.93-5.29Z"/>
      <path class="cls-5" d="M60.98,45.29l1.09-1.09c-.39.39-.63.68-1.09,1.09Z"/>
    </g>
    <g>
      <path class="cls-3" d="M28.31,54c.4-.35,2.13-.98,2.2-1.34.26-1.29-1.58-4.37,1.68-5.12,3.94-.9,5.23,1.61,3.89,5.02,1.52.77,3.33,2.34,4.57,3.61.07.08.14.7.52,1.1,4.34,4.55,11.76,11.7,15.09,16.69l.02,2.74c-1.76.55-3.45-.06-5.1-.57-.13-.09-.23-.27-.36-.36l-2.9-2.18-.36,3.99c-.76-.04-1.58.1-2.34-.02-2.4-.4-4.04-3.59-4.74-3.61-.75,2.46-.42,4.19-3.45,3.63-2.12-.39-3.74-1.41-4.9-3.26-.71.85-1.27,1.86-2.18,2.53-1.11.82-2.37.75-2.9,1.82-1.37-.54-.68-3.99-2.72-3.99-.06.21.07.62,0,.73l-.36.36c-.08.11-.52.51-.73.73-1.39.79-2.63,1.68-4.36,1.45-.08-.03-.23-.26-.36-.36l-.73-3.63c-.56.1-.77.74-1.09,1.09-.5.57-.74,1.18-1.55,1.54-1.92.86-5.35,1.75-4.45-1.55.57-2.11,9.09-11.89,11.08-14.15.51-.57,1.13-1.03,1.45-1.81.29-.26.5-.51.73-.73,1.39-1.29,2.69-2.81,3.99-3.99.13-.11.24-.25.36-.36ZM32.3,55.45c-1.5.86-3.39,3.56-1.99,5.08,1.77.54,2.15-4.07,1.99-5.08ZM36.65,60.53c.27-1.95-.42-4.07-2.17-5.08-.06,1.66-.11,5.19,2.17,5.08Z"/>
      <path class="cls-10" d="M47.55,77.59l.36-3.99,2.9,2.18-2.17-1.09c-.11.74-.11,1.99-.38,2.64-.18.43-.66.22-.71.27-.09.09.32.65-.52.76-2.42.31-4.76-1.24-5.83-3.3l-1.99,3.09c-.53.16-2.44.75-2.18-.54,3.04.56,2.7-1.18,3.45-3.63.7.02,2.34,3.21,4.74,3.61.76.13,1.57-.02,2.34.02Z"/>
      <path class="cls-2" d="M51.17,76.14c1.65.5,3.34,1.12,5.1.57l-.02-2.74c2.57,3.86-1.72,4.47-4.5,2.85-.36-.21-.47-.6-.58-.68Z"/>
      <path class="cls-10" d="M28.31,54c2.28-1.54.92-3.71,1.56-5.35.04-.1,1.53-1.47,1.63-1.51,1.37-.57,2.74-.55,4.04.18,2.56,1.43.85,3.61,1.66,5.24.28.56,3.11,2.58,3.45,3.62-1.23-1.27-3.05-2.84-4.57-3.61,1.34-3.42.05-5.92-3.89-5.02-3.27.75-1.43,3.83-1.68,5.12-.07.36-1.8.99-2.2,1.34Z"/>
      <path class="cls-10" d="M27.94,54.36c-1.3,1.18-2.61,2.71-3.99,3.99.8-1.52,2.34-3.34,3.99-3.99Z"/>
      <path class="cls-2" d="M18.51,77.59c-.09-.07-.49.21-.73-.24-.28-.52-.24-1.65-.38-2.28l-.7-.02c.31-.35.52-.99,1.09-1.09l.73,3.63Z"/>
      <path class="cls-2" d="M18.87,77.96c1.72.23,2.96-.66,4.36-1.45-1.59,1.69-2.02,2.24-4.36,1.45Z"/>
      <path class="cls-10" d="M21.77,60.9l-.36-.18c.49-.67,1.22-1.1,1.81-1.64-.32.79-.95,1.24-1.45,1.81Z"/>
      <path class="cls-2" d="M23.95,75.78l.36-.36c-.1.14-.27.24-.36.36Z"/>
      <path class="cls-10" d="M32.3,55.45c.16,1.01-.22,5.62-1.99,5.08-1.41-1.52.49-4.22,1.99-5.08Z"/>
      <path class="cls-10" d="M36.65,60.53c-2.29.11-2.23-3.42-2.17-5.08,1.75,1.01,2.44,3.13,2.17,5.08Z"/>
    </g>
  </g>
  <path class="cls-6" d="M34.48,103c-7-1.16-13.96-2.52-20.65-4.94l-2.22-1.59c11.09,1.51,22.37,2.57,33.57,1.45,2.57-.26,11.21-1.5,12.34-3.99.27-.59.03-1.76.39-1.82,8.44-.17,16.96.44,25.35-.38.27.07.56,1.8.99,2.36s.87.44,1.04.57c2.71,2.1,7.63,2.82,11.12,3.22,11.23,1.29,22.78.28,33.89-1.4.2.97-.25.62-.72.9-5.2,3.09-18.96,5.36-25.29,6.31-23.13,3.44-46.77,3.14-69.82-.67Z"/>
  <path class="cls-11" d="M119.05,97.19c-.17.48-.69.34-1.09.36.18-.47.69-.35,1.09-.36Z"/>
</svg>