<?xml version="1.0" encoding="UTF-8"?>
<svg id="_圖層_4" data-name="圖層 4" xmlns="http://www.w3.org/2000/svg" viewBox="0 0 141.73 141.73">
  <defs>
    <style>
      .cls-1 {
        fill: #ca8c13;
      }

      .cls-2 {
        fill: #b46b1f;
      }

      .cls-3 {
        fill: #f2e94f;
      }

      .cls-4 {
        fill: #f4e43f;
      }

      .cls-5 {
        fill: #f0be2a;
      }

      .cls-6 {
        fill: #bf7a1a;
      }

      .cls-7 {
        fill: #f4dd45;
      }

      .cls-8 {
        fill: #bb751c;
      }

      .cls-9 {
        fill: #f5da49;
      }

      .cls-10 {
        fill: #f2c22d;
      }

      .cls-11 {
        fill: #f5cd33;
      }

      .cls-12 {
        fill: #f4c62f;
      }

      .cls-13 {
        fill: #f5d23b;
      }
    </style>
  </defs>
  <g>
    <path class="cls-11" d="M15.12,54.28c2.4.24,4.97.44,7.44.78l26.2.36c.11,1.67.04,5.6.76,6.98.41.79.89.31,1.15.28.66-.06,1.09-.31,1.53-.38.03,0,.19.4.37.39.72-2.37.92-4.79.78-7.27.47-.47,8.34.37,9.73.4,8.36.17,16.69-.73,25.05-.4l.79,7.27c.19-.02.33-.39.36-.38.34.05.58.37,1.25.3,2.59-.29.77-5.32,1.81-6.79-.03.63.02,1.28,0,1.91h.37s0-2.29,0-2.29h24.65c.13,0,.64-.36,1.13-.4,1.29-.1,3.09.42,4.03-.37,2.07-.04,4.07-.18,6.12-.38.55,6.44.55,12.86.76,19.32.02.74-.39,1.53.76,1.32.07,1.7.38,4.14.38,5.54v10.32c0,2.35.67,5.71.76,8.22h-.76c-.02-1.27.04-2.55,0-3.82-.18-5.72-.81-11.46-.77-17.2-1.37-.32-.58,1.5-.76,2.29-1.84-.69-1.99.91-2.53,1.09-.63.21-1.47-.07-2.17.13-.9.25-1.68,1.79-3.93,2.19-.43.08-3.58.4-3.76.35-.51-.13-.61-1.04-.99-1.29-.83-.54-8.9.81-10.59.86-.52.01-.83-.56-1.36-.56-2.88.02-4.72,1.53-8.04.59-.7-.2-.91-1.25-1.79-1.07.26,1.71.9,3.52,1.12,5.22.09.7-.37,1.21-.36,1.28-.79-2.31-2.23-14.66-3.44-15.67-.1-.08-.86-.16-1.13-.38-.07.77-.65,1.36-.76,2.13-.47,3.38-.39,7.53-.79,11.06s-.92,7.4-1.91,10.9c.47-3.79.84-7.65,1.14-11.46-2.94.96-5.92,1.13-8.98,1.45-.5.05-1.18-.38-1.88-.31-1.18.11-4.24,1.34-5.45,1.45-1.12.1-4.22-1.76-4.92-1.83-1.15-.11-3.99.66-5.36.78-.92.08-1.66-.38-2.29-.36-1.1.05-2.85,2-4.75.72.33,4.97,1.17,9.96,1.91,14.9-.91-1.21-.96-3.1-1.15-4.59-.03-.25.03-.52,0-.76-.02-.17-.21-.33-.38-.38-.09-.37.14-.92-.38-1.15,0-.13,0-.26,0-.38-.49-7.41-1.79-14.76-2.3-22.17l-1.56.23c-1.22,3.11-1.24,6.49-1.87,9.71-.85,4.34-1.68,8.78-3.06,12.99.64-3.53,1.11-7.17,1.91-10.7-1.31.74-2.46-.11-3.6,0-1.07.1-3.64,1.39-4.64,1.52-1.26.16-3.37.76-3.84.79-.82.04-1.33-.71-2.25-.81-1.43-.14-2.32.67-3.47.77-2.54.23-6.47-.58-9.14-.66-1.01-.03-2.12.46-3.45.31-2.09-.23-2.82-2.63-5.17-.91l-1.13,16.19c.65-4.12,0-10.8.38-15.29.02-.25-.04-.54,0-.76.09-.45.38-.72.38-.76.58-5.82.88-12.16,1.16-18.14.21-4.38.04-8.82.36-13.2.75.05,1.55-.07,2.3,0Z"/>
    <path class="cls-11" d="M122.51,54.28v.38c-.38,0-.76,0-1.15,0,.18-.5.73-.37,1.15-.38Z"/>
    <path class="cls-10" d="M10.54,102.43l1.13-16.19c2.35-1.72,3.08.68,5.17.91,1.33.15,2.44-.34,3.45-.31,2.68.08,6.61.89,9.14.66,1.15-.1,2.04-.92,3.47-.77.92.09,1.43.84,2.25.81.47-.02,2.58-.62,3.84-.79,1-.13,3.57-1.42,4.64-1.52,1.13-.1,2.28.74,3.6,0-.8,3.53-1.26,7.17-1.91,10.7-.02.12.02.26,0,.38-.57.05-.57,1.09,0,1.15-.36,1.93-1.61,7.83-2.37,9.28-1.06,2.03-7.42,1.52-9.68,1.43-4.72-.19-19.38-1.75-22.72-4.6l.37-.19-.37-.19c-.13,0-.26-.01-.38,0-.03-.29.36-.64.38-.76Z"/>
    <path class="cls-10" d="M56.02,102.43c-.74-4.94-1.58-9.94-1.91-14.9,1.91,1.28,3.65-.68,4.75-.72.64-.03,1.38.43,2.29.36,1.37-.11,4.21-.88,5.36-.78.7.06,3.79,1.93,4.92,1.83,1.21-.11,4.26-1.33,5.45-1.45.7-.07,1.38.36,1.88.31,3.06-.32,6.03-.49,8.98-1.45-.31,3.81-.67,7.67-1.14,11.46-.02.13.02.26,0,.38-.6.16-.57,1.41,0,1.53-.12.94-.22,2.18-.38,3.06-.14.72-1.41,5.15-1.78,5.38-8.76,1.23-17.78,1.53-26.6.25-1.85-.75-1.58-3.72-1.82-5.25Z"/>
    <path class="cls-12" d="M94.62,89.06c-.01-.07.45-.58.36-1.28-.23-1.7-.86-3.51-1.12-5.22.89-.18,1.09.87,1.79,1.07,3.31.94,5.15-.57,8.04-.59.53,0,.84.57,1.36.56,1.7-.05,9.77-1.4,10.59-.86.38.25.47,1.16.99,1.29.18.05,3.33-.28,3.76-.35,2.25-.4,3.03-1.93,3.93-2.19.7-.2,1.54.08,2.17-.13.54-.18.69-1.78,2.53-1.09.18-.79-.61-2.61.76-2.29-.05,5.74.59,11.47.77,17.2-2.65.54-5.56.43-8.2.78-1.12.15-2.49,1.05-3.88,1.09-2,.05-4.82-.87-6.85-.76-1.23.07-1.91.73-2.7.8s-1.62-.48-2.19-.33c-.49.13-.79.91-1.26,1-1.12.23-3.1-.92-3.85-1-.69-.07-.97.89-1.53,1.03-.68.18-1.93-.6-2.79-.32.62,2.54,1.06,5.07,1.53,7.64-1.56-5.05-3.39-10.84-4.2-16.05Z"/>
    <path class="cls-5" d="M130.54,95.17c.04,1.27-.02,2.55,0,3.82.02,1.37.7,3.51.03,4.42-.96,1.32-4.92,1.14-6.14,2.45-.86.22-1.72.58-2.68.76-.39-.76-1.33-.26-1.91-.19-4.98.56-10.05.79-14.91,1.72-.25,0-.51.02-.76,0v-.76s-4.97-.38-4.97-.38c-.06-.06.06-.28,0-.38l-.38-1.15c-.02-.12.02-.26,0-.38-.46-2.57-.91-5.11-1.53-7.64.86-.27,2.11.5,2.79.32.57-.15.84-1.11,1.53-1.03.75.08,2.73,1.23,3.85,1,.47-.1.77-.88,1.26-1,.57-.15,1.4.4,2.19.33s1.46-.73,2.7-.8c2.02-.11,4.84.81,6.85.76,1.39-.04,2.77-.94,3.88-1.09,2.63-.36,5.54-.24,8.2-.78Z"/>
    <path class="cls-7" d="M16.27,53.9l.57.38.19-.38c1.79.13,3.55.28,5.35.38.25.01.51-.01.76,0,3.37.18,6.82.34,10.32.38.76,0,1.53,0,2.29,0,4.45,0,8.92,0,13.38,0,.07.04.34.31.38.38.19,2.52-.67,5.56,1.15,7.64-.27.03-.75.51-1.15-.28-.71-1.39-.65-5.32-.76-6.98l-26.2-.36c-2.47-.34-5.04-.54-7.44-.78v-.38c.38.02.77-.03,1.15,0Z"/>
    <path class="cls-4" d="M13.98,53.52l1.15.38v.38c-.74-.07-1.54.05-2.3,0-.33,4.38-.15,8.82-.36,13.2-.29,5.97-.58,12.32-1.16,18.14-.02-.51.03-1.02,0-1.53-.02-.42.12-.96-.38-1.15.48-4.8.61-9.87.78-14.7s.21-9.57.37-14.35c.06-.06.65-.36.76-.38.3-.06.8-.01,1.15,0Z"/>
    <path class="cls-6" d="M91.18,73.39c-.46.46-1.07.09-1.18.93-.25,2.03-.13,4.51-.35,6.52-.78,7.17-1.72,14.32-3.06,21.41l-.38-.19c.16-.88.26-2.11.38-3.06.06-.49-.06-1.04,0-1.53.02-.13-.02-.26,0-.38.99-3.5,1.5-7.29,1.91-10.9s.32-7.68.79-11.06c.11-.76.68-1.36.76-2.13.27.22,1.04.3,1.13.38Z"/>
    <path class="cls-6" d="M10.92,82.94c-.04.39-.08,1,.38,1.15.03.51-.02,1.02,0,1.53,0,.04-.3.31-.38.76-1.03-3.31-.11-7.19.02-10.49.27-6.89.04-14.25.73-21.08.06-.56.04-.53.4-.92-.16,4.77-.2,9.57-.37,14.35s-.3,9.9-.78,14.7Z"/>
    <path class="cls-6" d="M48.37,82.94c.63-3.22.66-6.6,1.87-9.71l1.56-.23c.51,7.41,1.81,14.76,2.3,22.17-1.85-6.8-2.03-14.12-2.72-21.16l-.72-.44-1.91,10.32-.38-.95Z"/>
    <path class="cls-4" d="M126.34,53.9c.88-.06,1.79.03,2.67,0l.39,7.26c.02.61-.24,1.58.38,1.91.15,2.91-.12,5.88,0,8.79.02.61-.24,1.58.38,1.91.02.38-.02.77,0,1.15-1.15.21-.74-.58-.76-1.32-.22-6.46-.21-12.88-.76-19.32-2.05.2-4.05.34-6.12.38v-.38c1.4-.05,2.54-.29,3.82-.38Z"/>
    <path class="cls-4" d="M121.37,54.66c.38,0,.76,0,1.15,0-.93.79-2.74.27-4.03.37-.49.04-1,.4-1.13.4h-24.65v2.29s-.38,0-.38,0c.01-.63-.03-1.28,0-1.91.01-.25-.02-.51,0-.76,6.57-.12,13.16.15,19.73.03.69-.01,1.22-.41,1.29-.41,2.67-.06,5.36.05,8.03,0Z"/>
    <path class="cls-6" d="M10.92,87.15c-.38,4.49.27,11.16-.38,15.29-.02.13-.41.47-.38.76-.05,0-.08.48-.38.38.18-5.04.21-10.07.38-15.11.02-.74-.39-1.53.76-1.32Z"/>
    <path class="cls-12" d="M121.75,106.64c-4.98.98-11.75,1.69-16.82,1.53,4.86-.93,9.93-1.17,14.91-1.72.57-.06,1.51-.57,1.91.19Z"/>
    <path class="cls-6" d="M23.15,54.28c2.73-.63,6.15-.48,9-.38.74.02,1.53-.39,1.32.76-3.5-.04-6.95-.2-10.32-.38Z"/>
    <path class="cls-12" d="M99.2,107.02l4.97.38v.76c-1.28-.08-4.12-.27-4.97-1.15Z"/>
    <path class="cls-12" d="M131.3,98.99c.04,1.03.16,2.7,0,3.62-.4,2.14-5.01,2.79-6.87,3.26,1.22-1.32,5.18-1.14,6.14-2.45.67-.92,0-3.05-.03-4.42h.76Z"/>
    <path class="cls-6" d="M54.49,96.7c.04.17.22.32.38.38.03.25-.03.52,0,.76h-.76c-.03-.76.02-1.53,0-2.29.52.23.29.77.38,1.15Z"/>
    <path class="cls-11" d="M129.78,63.07c-.62-.33-.36-1.3-.38-1.91.63.33.35,1.3.38,1.91Z"/>
    <path class="cls-11" d="M130.16,73.77c-.62-.33-.36-1.3-.38-1.91,0,.1.35,1.09.38,1.91Z"/>
    <path class="cls-11" d="M45.32,97.47c-.57-.05-.57-1.09,0-1.15-.07.35.07.8,0,1.15Z"/>
    <path class="cls-12" d="M99.2,106.64c-.3-.58-.27-.46-.38-1.15l.38,1.15Z"/>
    <path class="cls-11" d="M10.54,103.58c-.06-.05.06-.34,0-.38l.37.19-.37.19Z"/>
    <path class="cls-1" d="M54.87,97.08c-.16-.07-.34-.21-.38-.38.17.05.36.21.38.38Z"/>
    <path class="cls-11" d="M86.59,98.99c-.57-.12-.6-1.37,0-1.53-.06.49.06,1.04,0,1.53Z"/>
    <path class="cls-11" d="M17.03,53.9l-.19.38-.57-.38c.25.02.51-.02.76,0Z"/>
    <path class="cls-11" d="M11.3,84.09c-.46-.14-.42-.75-.38-1.15.5.18.36.73.38,1.15Z"/>
  </g>
  <g>
    <path class="cls-6" d="M49.14,54.66c-4.45,0-8.92,0-13.38,0,.4-.63,1.45-.38,2.1-.39,3.09-.04,6.99-.27,9.98-.02.76.07.7.06,1.3.41Z"/>
    <g>
      <path class="cls-1" d="M24.3,30.97c30.91.64,62.34.64,93.25,0,2.68-3.76,9.9-4.03,13.65-1.99.73.4,1.34,1.37,1.91,1.53,2.51.74,5.53-.67,7.55,2.39,1.61,2.43,1.43,9.79-.55,12.02-2.01,2.28-5.23,1.27-7.66,1.9-1.15.3-1.88,1.47-3.04,1.74l4.35.8c.76.49,1.19,1.98,1.34,2.86,1.17,6.76.77,15.84,1.18,22.9.28,4.84.54,9.66.76,14.52.21,4.53,1.42,11.76.74,16.03-.49,3.1-6.13,4.62-8.77,5.37-7.75,2.22-22.33,4.01-29.98,1.7-4.5-1.36-4.85-5.1-5.77-9.14-.63-2.79-1.17-5.96-1.33-8.8-.72.15-.69.75-.77,1.33-.51,3.76-.49,12.83-3.44,15.28-1.54,1.28-5.09,1.8-7.11,2.07-5.42.73-21.83,1.15-26.27-1.54-3.49-2.11-3.43-12.51-4.07-16.38-.54-.09-.55.68-.65,1.06-1.34,5.4-.33,14.27-6.68,16.25-7.25,2.26-29.23.06-35.87-3.72-4.63-2.64-2.79-6.07-2.64-10.32.53-14.61.38-30.67,1.9-45.11.19-1.78.51-4.24,2.56-4.7l3.16-.46c-1.24-.33-2.04-1.57-3.33-1.83-2.8-.56-5.1.7-7.36-2.19-1.67-2.13-1.82-9.25-.39-11.46,1.91-2.94,4.49-1.77,6.99-2.56.61-.19,1.16-1.12,1.91-1.53,2.56-1.39,8.97-1.66,11.49-.25,1.07.6,1.59,2.1,2.92,2.24ZM19.71,32.11c-.13-.54-.45-.67-.96-.76-1.22-.22-6.74-.23-7.36.85-.52.91-.51,4.61-.47,5.83s.23,3.76.4,4.95c.08.55.23,1.05.74,1.36.77.47,2.5.38,3.44.38,1.25,0,3.33.38,4.02-.77l.18-.76v-11.08ZM121.37,43.2l.6,1.55,6.97-.48c-.06-.51.46-1.38.46-1.64v-9.94c-1.82-1.45-5.2-1.09-7.34-.54-.33.09-.44.55-.69.73-.02.01-.37-.66-.38-.19v11.46c.57.64.38-.72.38-.95ZM24.3,34.41v7.64h92.49v-7.64H24.3ZM25.06,42.43v.38h91.34v-.38H25.06ZM24.68,46.25c-.45.03-1.07-.15-1.44.08l-2,2.98h26.75l-.38-3.06h-22.93ZM57.16,46.25c-.25.01-.51-.02-.76,0,.16,1.03-.3,2.07,0,3.06.05.17-.12.49.04.72l28.24.05c.09-.67-.87-.36-1.33-.38-8.16-.33-16.83.55-24.89.03-.76-.05-.87-.28-1.29-.41h27.52s-.38-3.06-.38-3.06h-27.13ZM93.47,46.25l-.16,3.06h26.53c.33-.29-1.71-3.31-2.67-3.06h-23.69ZM93.47,49.69v.38h24.08v-.38h-24.08ZM12.83,53.52c-.11.02-.7.32-.76.38-.36.38-.35.36-.4.92-.68,6.83-.46,14.18-.73,21.08-.13,3.31-1.04,7.19-.02,10.49-.04.22.02.51,0,.76-1.15-.21-.74.58-.76,1.32-.17,5.05-.2,10.07-.38,15.11.3.1.33-.38.38-.38.13-.01.26,0,.38,0,.06.04-.06.33,0,.38,3.35,2.86,18,4.42,22.72,4.6,2.27.09,8.63.6,9.68-1.43.76-1.46,2.01-7.36,2.37-9.28.07-.35-.07-.8,0-1.15.02-.12-.02-.26,0-.38,1.38-4.21,2.21-8.65,3.06-12.99l.38.95,1.91-10.32.72.44c.69,7.04.87,14.36,2.72,21.16,0,.13,0,.26,0,.38.02.76-.02,1.53,0,2.3h.76c.19,1.48.24,3.37,1.15,4.58.23,1.53-.04,4.51,1.82,5.25,8.81,1.28,17.83.98,26.6-.25.37-.23,1.64-4.66,1.78-5.38l.38.19c1.34-7.08,2.27-14.23,3.06-21.41.22-2.01.1-4.49.35-6.52.1-.84.72-.47,1.18-.93,1.21,1.01,2.65,13.36,3.44,15.67.82,5.22,2.64,11,4.2,16.05.02.12-.02.26,0,.38.12.69.08.57.38,1.15.06.11-.06.32,0,.38.86.88,3.69,1.06,4.97,1.15.25.02.51,0,.76,0,5.06.16,11.84-.55,16.82-1.53.96-.19,1.82-.55,2.68-.76,1.86-.47,6.47-1.12,6.87-3.26.17-.92.05-2.59,0-3.62-.09-2.5-.76-5.86-.76-8.22v-10.32c0-1.4-.31-3.84-.38-5.54-.02-.38.02-.77,0-1.15-.04-.82-.38-1.81-.38-1.91-.12-2.91.15-5.88,0-8.79-.03-.61.24-1.58-.38-1.91l-.39-7.26c-.88.03-1.79-.07-2.67,0-2.29-.62-5.36-.16-7.85-.01-.5.03-1,.4-1.13.4h-25.03c-.09.67.86.36,1.33.38,6.54.27,13.15-.2,19.69,0-.07,0-.6.4-1.29.41-6.57.12-13.16-.15-19.73-.03-.02.25.01.51,0,.76-1.05,1.48.78,6.51-1.81,6.79-.66.07-.91-.25-1.25-.3l-.76-7.26-35.54-.38-.39,1.91c-.02-.43.26-1.25-.38-1.14l-.45,6.24-.51.63-.92-.41c-.29-1.79-.03-5.47-.8-6.84-.04-.07-.31-.34-.38-.38-.6-.34-.54-.34-1.3-.41-2.99-.26-6.89-.02-9.98.02-.65,0-1.7-.24-2.1.39-.76,0-1.53,0-2.29,0,.21-1.15-.58-.74-1.32-.76-2.85-.1-6.27-.25-9,.38-.25-.01-.51.01-.76,0,.21-1.16-.58-.74-1.32-.76-1.4-.05-2.81.07-4.22,0-1.2-.06-2.91-.99-4.02,0ZM129.01,53.14h-1.91v.37h1.91v-.37Z"/>
      <path class="cls-2" d="M117.55,30.97c-30.91.64-62.34.64-93.25,0h93.25Z"/>
      <path class="cls-3" d="M116.78,34.41v7.64H24.3v-7.64h92.49ZM24.67,41.67h91.75s0-6.52,0-6.52H24.67s0,6.52,0,6.52Z"/>
      <path class="cls-7" d="M121.37,32.88c.25-.17.36-.64.69-.73,2.14-.56,5.52-.92,7.34.54v9.94c0,.27-.51,1.13-.46,1.64l-6.97.48-.6-1.55c.09-3.43-.06-6.89,0-10.32ZM129.01,38.61h-6.88v5.35h6.5l.38-5.35Z"/>
      <path class="cls-13" d="M19.33,38.61c.05,1.5-.35,3.32.38,4.59l-.18.76c-.69,1.14-2.77.78-4.02.77l-2.89-1.12c-.37-.54-.17-4.33-.17-5.37,2.35,1,4.55-.37,6.88.38Z"/>
      <rect class="cls-8" x="25.06" y="42.43" width="91.34" height=".38"/>
      <path class="cls-4" d="M52.58,56.57l.39-1.91,35.54.38.76,7.26s-.17.36-.36.38l-.79-7.27c-8.36-.33-16.7.57-25.05.4-1.39-.03-9.26-.87-9.73-.4.14,2.48-.06,4.9-.78,7.27-.17,0-.34-.39-.37-.39.42-1.88.48-3.81.38-5.73Z"/>
      <path class="cls-4" d="M19.71,32.11v11.08c-.73-1.27-.33-3.09-.38-4.59-.07-2.06.07-4.07-.38-6.11h-5.92c-1,1.38-.57,3.94-.57,5.73,0,1.05-.21,4.84.17,5.37l2.89,1.12c-.94,0-2.67.08-3.44-.38-.48-3.92-.56-7.92-.21-11.87,2.57-1.43,5.17-.3,7.86-.36Z"/>
      <path class="cls-6" d="M126.34,53.9c-1.28.09-2.42.33-3.82.38-.42.02-.96-.12-1.15.38-2.67.05-5.36-.06-8.03,0-6.54-.2-13.15.27-19.69,0-.47-.02-1.42.29-1.33-.38h25.03c.14,0,.64-.37,1.13-.4,2.48-.14,5.56-.6,7.85.01Z"/>
      <path class="cls-8" d="M57.16,49.31c.42.13.53.36,1.29.41,8.06.52,16.74-.36,24.89-.03.47.02,1.42-.29,1.33.38l-28.24-.05c-.15-.23.02-.54-.04-.72.24.04.57-.06.76,0Z"/>
      <path class="cls-2" d="M57.16,46.25h27.13c-8.95.33-18.22-.44-27.13,0Z"/>
      <rect class="cls-8" x="93.47" y="49.69" width="24.08" height=".38"/>
      <path class="cls-2" d="M47.61,46.25c-7.5.38-15.49-.51-22.93,0h22.93Z"/>
      <path class="cls-6" d="M19.71,32.11c-2.69.06-5.29-1.07-7.86.36-.35,3.95-.27,7.95.21,11.87-.51-.31-.66-.81-.74-1.36-.17-1.19-.37-3.72-.4-4.95s-.05-4.91.47-5.83c.62-1.09,6.13-1.07,7.36-.85.51.09.83.22.96.76Z"/>
      <path class="cls-6" d="M12.83,53.52c1.11-1,2.81-.06,4.02,0,1.4.07,2.81-.05,4.22,0,.74.03,1.53-.39,1.32.76-1.8-.1-3.56-.25-5.35-.38-.25-.02-.51.02-.76,0-.38-.03-.77.02-1.15,0-.06,0-.22-.35-1.15-.38-.35-.01-.85-.06-1.15,0Z"/>
      <path class="cls-2" d="M121.37,32.88c-.06,3.43.09,6.89,0,10.32,0,.24.19,1.6-.38.95v-11.46c.01-.47.37.2.38.19Z"/>
      <path class="cls-6" d="M49.52,55.04c.76,1.37.51,5.05.8,6.84l.92.41.51-.63.45-6.24c.64-.1.36.72.38,1.14.1,1.92.04,3.85-.38,5.73-.44.07-.86.32-1.53.38-1.82-2.08-.96-5.13-1.15-7.64Z"/>
      <rect class="cls-6" x="127.1" y="53.14" width="1.91" height=".37"/>
      <rect class="cls-13" x="24.67" y="38.23" width="91.75" height="3.44"/>
      <rect class="cls-9" x="24.67" y="35.15" width="91.75" height="3.08"/>
      <polygon class="cls-13" points="129.01 38.61 128.63 43.96 122.13 43.96 122.13 38.61 129.01 38.61"/>
      <path class="cls-9" d="M12.45,38.23c0-1.79-.43-4.36.57-5.73h5.92c.46,2.04.31,4.06.38,6.11-2.33-.76-4.52.62-6.88-.38Z"/>
      <path class="cls-1" d="M15.12,53.9l-1.15-.38c.92.04,1.09.38,1.15.38Z"/>
    </g>
  </g>
</svg>