<?xml version="1.0" encoding="UTF-8"?>
<svg id="_圖層_8" data-name="圖層 8" xmlns="http://www.w3.org/2000/svg" viewBox="0 0 141.73 141.73">
  <defs>
    <style>
      .cls-1 {
        fill: #d89e24;
      }

      .cls-2 {
        fill: #d18c21;
      }

      .cls-3 {
        fill: #f8e992;
      }

      .cls-4 {
        fill: #faf8da;
      }

      .cls-5 {
        fill: #ebc74f;
      }

      .cls-6 {
        fill: #d2951d;
      }

      .cls-7 {
        fill: #f0d161;
      }

      .cls-8 {
        fill: #f9f3b4;
      }

      .cls-9 {
        fill: #f6e282;
      }

      .cls-10 {
        fill: #e0b332;
      }

      .cls-11 {
        fill: #f3da72;
      }

      .cls-12 {
        fill: #e5bc3e;
      }

      .cls-13 {
        fill: #f9efa3;
      }
    </style>
  </defs>
  <g>
    <path class="cls-1" d="M116.89,37.86l-1.75,13.64c-.1,1.15.46,1.41.45,1.49-.01.14.01.29,0,.43-1.36-.25-.74.67-.87,1.48-2.18,12.79-2.85,26.22-5.25,38.85-1.83,9.61-6.07,12.39-15.48,14.11v-3.46c.13-.42.32-.61.43-.86.36-.86.36-1.84.51-2.09.11-.18,1.98-.71,2.56-1.19.46-.38-.06-.59-.04-.62,1.22-1.49,2.82-2.72,3.33-4.66,1.52-9.8,2.68-19.66,4.01-29.48,1.28.25.79-.62.93-1.43,1.05-6.3,1.89-12.67,2.1-18.88,0-.29,0-.58,0-.86,1.39.24.73-.7.85-1.51,1.25-8.53-4.88-9.74-11.93-10.54-.71-.08-1.87-.35-2.32.38-8.5-1.59-26.95-5.65-34.73-5.13-4.8.32-10.09,2.09-14.96,2.54,2.53-8.3,9.57-11.39,17.92-10.79,13.52.97,28.12,5.26,41.72,6.68,6.53,1.57,11.19,5.01,12.52,11.9Z"/>
    <path class="cls-1" d="M120.78,49.96c.97-1.2-.37-.49-.47-1.48-.23-2.26.77-4.46.47-6.73.5-.52,7.87,3.88,8.86,4.75,7.48,6.56,2.02,19.1-.15,27.51-2.98,11.53-6.04,24.33-9.57,35.59-.73-1.74,0-9.97-3.9-7.57-.28.17-2.22,5.44-2.58,1.52l12.08-46.4c-.01-.33-.4-.6-.42-.7-.46-4.15-.55-4.56-4.32-6.48Z"/>
    <path class="cls-6" d="M119.92,109.59c-.14.45-.29.57-.43.86-.19.38-.64.64-.43,1.3-1.13,4.03-4.94,8.13-9.08,9.29-6.22,1.75-20.26-1.37-27.02-2.79-.72-.15-1.49-.13-1.93-.88,1.95-.63,3.8-1.44,5.63-2.37,1.27-.65,3.45-2.62,4.56-2.81,2.52-.43,8.25,1.52,11.21,1.71,8.26.53,8.3-4.02,10.15-10.36h.86c.36,3.92,2.3-1.35,2.58-1.52,3.89-2.4,3.17,5.83,3.9,7.57Z"/>
    <path class="cls-2" d="M120.78,49.96c-.37-.19-1.22-.32-1.32-.72l.46-8.35c.46-.52,7.83,3.18,8.79,3.95,6.51,5.25,6.27,9.89,4.57,17.4-2.46,10.87-5.8,22.36-8.73,33.18-4,14.77-4.64,29.01-24.22,26.63-6.94-.85-13.76-2.71-20.72-3.48l-.74-.76c.66-.25,1.56-.25,2.16-.44.43.75,1.21.73,1.93.88,6.76,1.42,20.8,4.54,27.02,2.79,4.13-1.16,7.95-5.26,9.08-9.29.08-.29.63-.72.43-1.3.15-.3.29-.42.43-.86,3.54-11.26,6.59-24.06,9.57-35.59,2.17-8.4,7.63-20.95.15-27.51-.99-.87-8.36-5.27-8.86-4.75.3,2.27-.7,4.47-.47,6.73.1.99,1.44.28.47,1.48Z"/>
    <path class="cls-2" d="M115.6,53.41c-1.19,12.51-2.98,27.59-5.26,39.9-.38,2.08-.73,4.25-1.57,6.2-2.44,5.68-9.64,9.04-15.64,8.77-.09-1.39.47-2.62.87-3.89v3.46c9.42-1.72,13.66-4.5,15.49-14.11,2.4-12.63,3.06-26.07,5.25-38.85.14-.81-.49-1.73.87-1.48Z"/>
    <path class="cls-2" d="M113.43,103.54h-.86c4.54-15.58,8.04-31.5,12.53-47.1.01.1.4.37.42.7l-12.08,46.4Z"/>
    <path class="cls-2" d="M94.42,32.67c.44-.74,1.61-.46,2.32-.38,7.05.81,13.18,2.01,11.93,10.54-.12.81.54,1.75-.85,1.51.02-2.73,1.12-4.3-.5-7.07-2.15-3.68-8.93-3.86-12.9-4.6Z"/>
    <path class="cls-2" d="M107.82,45.2c-.21,6.21-1.05,12.58-2.1,18.88-.14.81.36,1.68-.93,1.43.92-6.77,1.75-13.59,3.02-20.31Z"/>
    <path class="cls-2" d="M115.6,52.98c0-.08-.55-.34-.45-1.49l1.75-13.64c.93,4.82-.83,10.24-1.3,15.12Z"/>
    <path class="cls-2" d="M97.45,99.65s.5.24.04.62c-.58.48-2.45,1-2.56,1.19-.14.24-.15,1.22-.51,2.09l.05-2.98,2.97-.91Z"/>
    <path class="cls-1" d="M119.05,111.75c-.21-.66.24-.91.43-1.3.2.57-.35,1.01-.43,1.3Z"/>
  </g>
  <g>
    <path class="cls-1" d="M86.64,76.32c-.69.43-.5,1.66-.43,2.36.93,9.99,8.08,25.69-1.73,32.64-1.63-2.84.87-4.14,1.29-6.48-.3-.33-5,3.37-4.75-.43.03-.03.09-.48.43-.86.05-.06.56.13.77-.08.23-.23.49-1.83.52-2.3.06-.79,0-1.59,0-2.37h-.86c.03-.43-.03-.87,0-1.29.03-.37,1.33-1.51-.43-1.3.01-.28.03-.59,0-.86,0-.06.17.01,0-.86-.86-4.49-1.77-9.95-3.02-14.26-.06-3.49-.81-7.01-1.73-10.37-.16-3.52-.86-7-1.73-10.37,0-2.65-.55-5.28-.98-7.88-.13-.77-.64-1.47-.75-2.06-.02-.14.03-.29,0-.43,0-.02.07-.08,0-.43-.87-4.54.3-7.18-4.75-9.51-1.91-.88-2.39-.59-4.32-.43.02-.19-.07-.82,0-.86.34-.25,2.18.52,2.16-.43-.79,0-1.58-.05-2.37,0-12.38.86-27.81,2.86-40.13,4.81-.7.11-2.79.07-2.44,1.24-2.15-.09-5.11,3.15-5.52,5.07-.22,1.05-.04,2.1-.1,3.14-.38,6.45,2.26,18.68,3.59,25.58.14.71.16,1.57.73,2.08.02.14-.02.29,0,.43.3,2.44.41,5.38.86,7.78-1.58,2.63-2.81-.76-3.27-.86-.21-.05-2.93,1.59-4.08.86l-6.48-36.3c0-.29-.01-.58,0-.86.81-.44.69-1.22.86-1.95.25-1.12,1.05-3.15.44-4.1,1.85-4.4,6.07-7.81,10.71-8.96,13.6-3.35,30.47-2.54,44.41-5.32,7.65.32,14.77,3,17.18,10.91,2.93,9.64,4.22,24.92,5.92,35.35Z"/>
    <path class="cls-6" d="M7.13,51.25l6.48,36.3c1.15.73,3.87-.91,4.08-.86.45.1,1.68,3.5,3.27.86.07.39.61,1.32.86,1.73,0,.14,0,.29,0,.43.02.86-.03,1.73,0,2.6h.86s0,.43,0,.43c-.03.14.04.31,0,.43-.02.06-.45.19-.44.64s.42.58.44.66c1.09,3.36,1.49,6.87,2.16,10.37.8,6.96,2.7,9.94,10.18,9.53,12.62-.7,26.71-5.37,39.54-6.26,2.56-.36,4.7-1.9,6.46-3.69-.25,3.8,4.45.11,4.75.43-.43,2.34-2.93,3.64-1.29,6.48-1.16.82-2.2,1.76-3.6,2.24-14.25,2.2-30.74,6.79-45.02,7.7-2.63.17-5.49.16-7.99-.64l-6.48-3.24c-2.76-2.79-3.56-4.3-4.54-8.21-4.62-18.38-6.15-39.2-9.72-57.91ZM14.47,89.28v-.86h-.42v.86h.42ZM15.45,90.14c0-.29-.24-.53-.53-.53s-.53.24-.53.53.24.53.53.53.53-.24.53-.53Z"/>
    <path class="cls-2" d="M86.64,76.32c2.49,15.29,10.91,34.38-9.85,39.2-11.1,2.58-29.67,5.77-40.92,6.61-6,.45-10.25-.48-14.48-4.76l6.48,3.24c2.5.8,5.36.81,7.99.64,14.29-.91,30.78-5.49,45.02-7.7,1.39-.47,2.43-1.41,3.6-2.24,9.81-6.95,2.66-22.65,1.73-32.64-.06-.7-.26-1.93.43-2.36Z"/>
    <path class="cls-6" d="M7.13,50.39c.09-2.36.38-3.86,1.3-6.05.61.94-.19,2.98-.44,4.1-.16.74-.05,1.51-.86,1.95Z"/>
    <path class="cls-10" d="M24.85,104.84c0-.06.5-.46.45-1.04-.08-.88-1.06-4.68-.85-4.96,1.71-.45,3.45-1.6,5.13-2.01,8.04-2,14.47-2.72,22.38-6.15,1.76-.76,3.56-2.75,5.62-3.45,2.8-.95,3.78-.46,6.56-2.08,4.38-2.56,6.92-5.31,11.68-7.34.78-.33,1.27-1.99,1.81-.46.31.88.55,1.95.81,2.87,1.25,4.31,2.17,9.77,3.02,14.26v.86c.03.28.01.58,0,.86-.02.47-.1,1.09.43,1.3-.03.43.03.87,0,1.3-.11,1.6.04,3.18-.43,4.75-.34.39-.4.83-.43.86-1.76,1.79-3.9,3.33-6.46,3.69-12.83.9-26.92,5.56-39.54,6.26-7.47.42-9.38-2.56-10.18-9.53Z"/>
    <path class="cls-12" d="M76.7,69.84c.91,3.36,1.67,6.88,1.73,10.37-.27-.92-.5-1.98-.81-2.87-.54-1.53-1.02.13-1.81.46-4.76,2.03-7.3,4.78-11.68,7.34-2.78,1.63-3.75,1.13-6.56,2.08-2.06.7-3.86,2.69-5.62,3.45-7.91,3.43-14.33,4.14-22.38,6.15-1.68.42-3.42,1.57-5.13,2.01-.21.29.78,4.08.85,4.96.05.59-.46.99-.45,1.04-.67-3.5-1.07-7.01-2.16-10.37v-1.3c.04-.12-.03-.29,0-.43.05-.26.5-.54.48-1.49s-.49-1.86-.48-2.83c6.77-1.23,12.53-4.63,18.63-7.52,6.74-3.19,13.45-6.44,20.12-9.69,2-.97,12.58-6.97,13.99-5.95.72.96.26,2.22.59,3.33.16.55.62,1.02.68,1.24Z"/>
    <path class="cls-5" d="M21.39,81.94l51.71-26.72,1.01-.07c-.4,1.66.52,2.99.87,4.32.87,3.37,1.56,6.85,1.73,10.37-.06-.22-.52-.69-.68-1.24-.33-1.11.13-2.37-.59-3.33-1.41-1.02-11.99,4.97-13.99,5.95-6.67,3.25-13.38,6.5-20.12,9.69-6.1,2.88-11.86,6.29-18.63,7.52,0,.97.46,1.86.48,2.83s-.43,1.23-.48,1.49v-.43l-.86-2.59c0-.14,0-.29,0-.43-.09-2.12-.23-3.95-.43-6.05-.04-.42.05-.87,0-1.3Z"/>
    <path class="cls-7" d="M72.81,49.53h.43c.11.59.62,1.29.75,2.06.44,2.6.98,5.23.98,7.88-.34-1.33-1.27-2.66-.87-4.32l-1.01.07-51.71,26.72c-.1-.84-.35-.98-.43-1.3-.02-.08-.47-.22-.43-.86.03-.53,1.07-3.74,1.44-4.18,1.75-2.04,6.89-3.83,9.32-5.16,13.42-7.36,27.45-15.13,41.53-20.91Z"/>
    <path class="cls-9" d="M68.49,39.15c5.05,2.33,3.89,4.96,4.75,9.51v.43c.03.14-.02.29,0,.43h-.43c-.09-1.5-.25-3.34-.66-4.76-.14-.5-.08-1.09-.78-.79-3.38,2.02-6.81,3.92-10.35,5.65-8.74,4.27-17.5,9.01-26.08,13.67-1.91,1.04-11.96,5.92-12.69,6.75-.83.94.04,2.32-2.19,2.63-.27,1.4,1.3,3.6.04,4.93-.34-2.57-.91-5.2-1.3-7.78.65-.41.52-1.85.43-2.59,1.8-.49,2.21-2.14,3.24-3.02,3.74-3.2,10.43-5.53,14.93-7.98,5.33-2.9,10.54-6.3,16.11-8.96,4.17-1.99,10.54-3.72,14.26-6.05.93-.58.78-1.14.73-2.08Z"/>
    <path class="cls-11" d="M20.09,77.61c1.26-1.33-.31-3.53-.04-4.93,2.23-.31,1.36-1.69,2.19-2.63.73-.83,10.78-5.71,12.69-6.75,8.58-4.67,17.34-9.41,26.08-13.67,3.55-1.73,6.97-3.63,10.35-5.65.7-.3.63.28.78.79.41,1.42.57,3.27.66,4.76-14.08,5.78-28.11,13.55-41.53,20.91-2.43,1.33-7.57,3.12-9.32,5.16-.37.44-1.41,3.64-1.44,4.18h-.43c-.02-.14.02-.29,0-.43-.07-.56.07-1.17,0-1.73Z"/>
    <path class="cls-3" d="M68.49,39.15c.06.94.2,1.5-.73,2.08-3.72,2.33-10.09,4.06-14.26,6.05-5.57,2.66-10.77,6.05-16.11,8.96-4.5,2.45-11.18,4.78-14.93,7.98-1.03.88-1.45,2.53-3.24,3.02-.17-1.53-1.06-3.75-1.3-5.19-.09-.53.09-1.2,0-1.73,2.66,1.78,2.95-.32,4.88-1.38,10.12-5.54,23.22-12.75,33.89-16.67,1.62-.6,6.04-1.25,7.04-2.04.58-.46.36-.95.43-1.51,1.93-.16,2.42-.45,4.32.43Z"/>
    <path class="cls-4" d="M63.31,38.72c-5.73.54-11.87,1.48-17.72,2.16-6.86.8-14.6,1.49-21.33,2.65-1.64.28-3.7.48-5.13,1.35-1.71,1.03-2.92,3.69-2.88,5.67.02,1.13.69,2.68.82,3.72.26,2.19.51,3.89.86,6.05.09.53-.09,1.2,0,1.73h-.43c-.6-3.45-1.28-6.9-1.73-10.37.06-1.05-.13-2.09.1-3.14.41-1.91,3.37-5.16,5.52-5.07,12.28-1.86,24.66-3.28,37-4.7,1.45-.17,3.55-.54,4.92-.05Z"/>
    <path class="cls-2" d="M21.39,43.48c-.35-1.17,1.74-1.13,2.44-1.24,12.32-1.95,27.75-3.94,40.13-4.81.79-.06,1.58,0,2.37,0,.02.95-1.82.17-2.16.43-.06.05.02.67,0,.86-.28.02-.58-.03-.86,0-1.37-.48-3.46-.11-4.92.05-12.34,1.42-24.72,2.84-37,4.7Z"/>
    <path class="cls-2" d="M17.5,62.06c.45,2.58.91,5.19,1.3,7.78s.96,5.21,1.3,7.78c.07.55-.07,1.17,0,1.73-.57-.51-.59-1.37-.73-2.08-1.33-6.9-3.97-19.13-3.59-25.58.45,3.47,1.13,6.93,1.73,10.37Z"/>
    <path class="cls-2" d="M20.96,80.64c-.38.96-.29,1.83.43,2.59.2,2.1.34,3.93.43,6.05-.25-.41-.79-1.34-.86-1.73-.45-2.4-.56-5.34-.86-7.78h.43c-.03.65.41.79.43.86Z"/>
    <path class="cls-6" d="M81.89,98.79h.86c0,.78.06,1.58,0,2.37-.04.48-.3,2.07-.52,2.3-.2.21-.72.02-.77.08.48-1.58.32-3.16.43-4.75Z"/>
    <path class="cls-6" d="M81.46,96.2c1.76-.22.46.93.43,1.3-.53-.2-.45-.83-.43-1.3Z"/>
    <path class="cls-6" d="M81.46,95.33v-.86c.17.88,0,.81,0,.86Z"/>
    <path class="cls-7" d="M73.25,49.09v-.43c.07.36,0,.41,0,.43Z"/>
    <path class="cls-2" d="M22.69,92.31h-.86c-.03-.86.02-1.73,0-2.59l.86,2.59Z"/>
    <circle class="cls-1" cx="14.92" cy="90.14" r=".53"/>
    <path class="cls-2" d="M22.69,94.47c-.03-.08-.44-.22-.44-.66s.42-.58.44-.64v1.3Z"/>
    <rect class="cls-1" x="14.05" y="88.42" width=".42" height=".86"/>
    <path class="cls-11" d="M21.39,81.94c.05.42-.04.87,0,1.3-.72-.77-.81-1.63-.43-2.59.08.32.34.45.43,1.3Z"/>
    <path class="cls-13" d="M19.23,67.24c.08.74.22,2.18-.43,2.59-.39-2.59-.85-5.2-1.3-7.78h.43c.24,1.44,1.12,3.66,1.3,5.19Z"/>
    <path class="cls-13" d="M64.17,38.72c-.06.56.15,1.05-.43,1.51-1,.79-5.42,1.45-7.04,2.04-10.66,3.92-23.77,11.13-33.89,16.67-1.93,1.06-2.23,3.16-4.88,1.38-.35-2.16-.61-3.86-.86-6.05,5.17-.73,9.7-3.96,14.39-6.13,3.6-1.67,7.16-2.79,10.84-4.28.82-.33,3.8-1.72,3.29-2.98,5.85-.68,11.99-1.62,17.72-2.16.28-.03.58.02.86,0Z"/>
    <path class="cls-8" d="M45.59,40.88c.52,1.25-2.47,2.64-3.29,2.98-3.68,1.5-7.24,2.62-10.84,4.28-4.69,2.17-9.22,5.41-14.39,6.13-.12-1.04-.79-2.59-.82-3.72-.04-1.98,1.17-4.64,2.88-5.67,1.43-.86,3.49-1.06,5.13-1.35,6.73-1.16,14.47-1.86,21.33-2.65Z"/>
  </g>
</svg>