<?xml version="1.0" encoding="UTF-8"?>
<svg id="_圖層_7" data-name="圖層 7" xmlns="http://www.w3.org/2000/svg" viewBox="0 0 141.73 141.73">
  <defs>
    <style>
      .cls-1 {
        fill: #a95c23;
      }

      .cls-2 {
        fill: #b7701f;
      }

      .cls-3 {
        fill: #c2821a;
      }

      .cls-4 {
        fill: #c18b16;
      }

      .cls-5 {
        fill: #f5d747;
      }

      .cls-6 {
        fill: #f2ea6f;
      }

      .cls-7 {
        fill: #f1e75e;
      }

      .cls-8 {
        fill: #b16e28;
      }

      .cls-9 {
        fill: #f5d141;
      }

      .cls-10 {
        fill: #b16b21;
      }

      .cls-11 {
        fill: #b87a2c;
      }

      .cls-12 {
        fill: #f5da49;
      }

      .cls-13 {
        fill: #f5e556;
      }

      .cls-14 {
        fill: #f5dd4c;
      }

      .cls-15 {
        fill: #cfa24d;
      }
    </style>
  </defs>
  <path class="cls-4" d="M13.4,21.71c4.66.25,10.62,1.92,15.5,2.47,24.11,2.74,54.34,2.72,78.49.41,6.54-.62,13.84-2.5,20.25-2.88,8.32-.5,7.03,4.24,5.17,10.54-.68,2.29-3.37,8.82-4.99,10.3-2.27,2.07-6.25,1.88-8.65,3.12-.16.09-.75-.25-.85.25.05,1.15-.03,2.32.02,3.46.03.69-.03,1.38,0,2.07.41.02.83-.02,1.24,0,.27,0,.56-.03.83,0,1.83.2,4.22.07,5.06,2.17.63,1.58.59,7.95-.32,9.38-1.23,1.92-2.67,1.53-4.54,1.67-.79.06-1.66-.46-1.43.82-.15.02-.33-.04-.41,0-1.03.49-.04,2.64,0,3.52.08,1.85-.06,3.72,0,5.57.26,7.24.18,15.36.88,22.47.08.81.57,3.48.86,4.09.49,1.02,2.06.96,2.76,2.2,1.03,1.84,1.15,8.51.88,10.71s-1.75,3.73-3.73,4.53c-6.28,2.55-19.01,2.37-25.38.18-2.29-.78-3.64-1.69-3.96-4.3-.21-1.74-.25-8.28.1-9.84.51-2.27,3.43-2.5,3.65-4.61l-.83-31.35-1.25-.69c-13.74.98-29.27-1.29-42.8-.03-.76.07-.76.03-1.4.44-.19.12-.5.15-.61.41-.17,7.12-.55,14.34-.62,21.49,0,.69,0,1.38,0,2.07.02,2.33.24,4.44.41,6.61.02.23-.61.93-.36,1.77.28.94,2.46,1.63,3.02,2.8.82,1.69.94,9.7.55,11.66-.3,1.46-1.4,2.46-2.67,3.12-5.7,2.96-20.27,2.57-26.25.38-1.92-.71-3.38-1.59-3.63-3.8-.22-1.88-.28-9,.1-10.66.52-2.33,3.37-2.4,3.63-3.8.56-10.6.8-21.22,1.22-31.83.03-.81.69-2.62.35-3.01-.17-.19-.69-.02-.74-.07-.05-.05.18-.72-.27-.83-2.36-.62-5.82.99-6.35-3.49-.65-5.52-.41-10.8,6.62-9.72.17-.11-.39-.6-.41-.82.27-.01.55.02.83,0l-.47-5.73c-8.59.94-12.57-7.9-13.99-14.93-1-4.93-1.78-8.6,4.54-8.26ZM14.64,26.25c-.9.85.44,5.06.94,6.29,1.27,3.17,3.48,7.09,7.1,7.36,7.85.57,17-.04,25.01-.01,23.76.08,47.54-.08,71.31.03.6.21,1.09-.36,1.4-.44.73-.2.83,0,1.67-.59,3.47-2.47,5.46-8.52,5.72-12.6-.25-.15-.62.03-.78-.03-.26-.1-.3-.4-.95-.39-3.77.04-9.31,1.53-13.35,2-3.68.42-7.42.61-11.12.88-.79.06-1.66-.46-1.43.82-.69.03-1.38-.02-2.07,0-1.24.04-2.42-.29-3.44-.26-19.09.67-37.79,1.08-56.87-.57-6.95-.6-14.69-2.51-21.3-2.9-.79-.05-1.2-.19-1.84.42ZM31.57,45.26c-.58.39-.6,5.56-.41,6.61,0,.02-.81.3-.21.42,2.87-.28,6.32.36,9.11.02.4-.05.97.14,1.01-.43-.07-2.05.1-4.15,0-6.2-.01-.27.02-.55,0-.83l-9.5.41ZM100.98,44.84v.41h9.5v-.41h-9.5ZM62.97,46.08c.38-.02,1.14.2,1.24-.2-.37-.55-.83-.58-1.43-.64-4.45-.45-9.68.32-14.21.06-.43.27-.44,6.01-.02,6.54.26.12.54,0,.79.03,2.9.36,9.2.26,12.21.02.39-.03.96.08,1.01-.43v-.41c.14,0,.28,0,.41,0l.41-.21c-.01-.1-.4-.15-.41-.2-.06-1.51.04-3.04,0-4.54ZM79.08,51.87c4.53-.1,9.1.13,13.63,0,.41-.01.83.02,1.24,0v-6.61h-15.08c-1.05.82-.93,6.26.21,6.61ZM100.57,45.67c-.98,1.37.07,3.52-.83,5.16l.83.21c.02.27-.02.55,0,.83.04.56.61.39,1.01.43,2.12.23,6.11.15,8.31,0,.41-.03.97.12,1.01-.43l-.41-6.2h-9.92ZM92.72,58.48c-.02-.27.03-.55,0-.83-14.59-.53-29.17-.39-43.8,0-.02.27.02.55,0,.83,0,.14,0,.28,0,.41-.7.77-.82,4.25.41,4.54l43.38-.41c1.28-.54,1.26-3.63,0-4.13,0-.14,0-.28,0-.41ZM100.57,58.48h-.41c-.68.43-.41,1.57-.42,2.27-.14,12.94.12,25.89,0,38.84.02.51.4-.22.41-.21.48.32.71.5,1.24.83s.84,1.14,1.13,1.22c2.23.62,4.89.48,7.13.02,1.03.78,2-.14,2.89-.41.31-.1.94.14,1.36,0,.49-.16.24-.78.29-.83.37-.37.96.67.84-1.86-.47-10.56-1.73-21.25-2.49-31.81-.18-2.49.37-5.85-.5-8.18-.22-.58-.39-.6-.95-.7-1.94-.37-6.85-.07-9.11,0-.8.03-1.66-.42-1.43.83ZM29.92,58.48c-1.25.38-.74,6.38-.83,7.64-.77,11.22-1.72,22.47-2.47,33.67l.82-1.24c.02.4-.06.88,0,1.24.1.6.06.82.65,1.2,2.04,1.32,13.26,1.58,14.15-1.06l-.76-41.45h-11.57ZM43.14,105.16c-2.2-.89-2.78-.03-4.73.02-4.24.1-8.43-.33-12.65-.25-.7.5-1.1,8.31-.6,9.33,1.23,2.48,15.24,1.77,17.87.51s.63-6.94.95-9.35c-.1-.51-.64-.17-.85-.26ZM98.5,114.66h.41c5.23,2.02,11.66,1.56,16.92-.04l-.4-.37c.19-.34.76-.29.86-1.02.16-1.2.17-5.88-.03-7.03-.3-1.68-1.19-.66-2.07-.62.2-1.3-.53-.78-1.32-.71-3.23.29-6.4.4-9.64.31-1.32-.04-2.44-.56-3.91-.43-.25.02-.52-.1-.75.06-.73.57-.76,8.51-.07,9.86Z"/>
  <path class="cls-4" d="M112.55,101.03l-.41-.41c.13-.04.29.04.41,0v.41Z"/>
  <path class="cls-8" d="M12.57,20.88c6.3.18,13.23,1.97,19.51,2.59,26.56,2.64,56.25,2.49,82.69-.58,4.73-.55,12.51-2.71,16.89-1.91,5.96,1.08,1.95,12.27.38,15.88-2.27,5.23-5.6,8.86-11.64,8.81-.41,0-.83,0-1.24,0,2.4-1.25,6.38-1.06,8.65-3.12,1.62-1.47,4.31-8,4.99-10.3,1.86-6.29,3.15-11.03-5.17-10.54-6.41.38-13.71,2.26-20.25,2.88-24.14,2.3-54.37,2.33-78.49-.41-4.88-.56-10.83-2.23-15.5-2.47l-.83-.83Z"/>
  <path class="cls-8" d="M92.72,67.98l1.25.69.83,31.35c-.22,2.11-3.14,2.34-3.65,4.61-.35,1.56-.31,8.1-.1,9.84.31,2.62,1.67,3.52,3.96,4.3,6.37,2.18,19.1,2.37,25.38-.18,1.98-.8,3.47-2.34,3.73-4.53s.15-8.87-.88-10.71c-.7-1.24-2.27-1.18-2.76-2.2-.29-.61-.79-3.29-.86-4.09-.7-7.11-.62-15.23-.88-22.47h.41c.46,8.15,1.46,16.34,1.27,24.56.33,2.09,1.69,1.81,2.73,2.85,2.39,2.38,2.64,13.11.37,15.58-4.44,4.82-26.77,4.81-31.6.57-2.31-2.03-2.01-10.06-1.5-13,.46-2.63,1.58-3.22,3.57-4.71l.34-.82c-.69-7.77-.76-15.58-.79-23.37,0-1.56.35-3.73-.41-4.96-.03-.82.02-1.65,0-2.48l-.41-.41v-.41Z"/>
  <path class="cls-8" d="M8.85,29.97c1.42,7.02,5.4,15.87,13.99,14.93l.47,5.73c-.27.02-.55-.01-.83,0,.03.22.58.72.41.82-7.03-1.08-7.27,4.2-6.62,9.72.53,4.49,3.99,2.88,6.35,3.49.46.12.22.79.27.83.06.06.57-.12.74.07.34.39-.32,2.2-.35,3.01-.42,10.61-.66,21.22-1.22,31.83-.26,1.4-3.11,1.48-3.63,3.8-.37,1.67-.32,8.79-.1,10.66.26,2.21,1.71,3.1,3.63,3.8,5.98,2.2,20.55,2.58,26.25-.38,1.26-.66,2.37-1.65,2.67-3.12.39-1.96.27-9.96-.55-11.66-.57-1.17-2.74-1.86-3.02-2.8-.25-.84.38-1.54.36-1.77h.41c.11,3.53,1.07,1.45,2.67,3.74,1.3,1.86,1.62,12.16.59,13.78-.09.14-2.12,2.14-2.29,2.26-5.16,3.57-23.38,3.13-28.87.07-1.48-.82-2.48-1.76-2.68-3.52s-.22-10.39.29-11.69c.04-.11,1.28-1.85,1.37-1.93.64-.61,2.01-.49,2.07-1.67l1.65-34.5c-2.52.12-5.25.31-6.8-2.08-1.15-1.77-1.02-9.39.42-11.12,1.54-1.86,3.88-1.58,5.97-1.67-.2-1.6,0-3.4.41-4.95-8.85,1.22-13.32-8.03-14.87-15.29l.83-.41Z"/>
  <polygon class="cls-15" points="92.72 68.39 93.13 68.8 48.51 68.8 48.51 68.39 92.72 68.39"/>
  <path class="cls-8" d="M122.88,51.04c1.69.19,2.91.82,3.44,2.55.7,2.27.65,8.64-.96,10.47-1.86,2.12-3.93,1.13-6.2,1.44-.23-1.28.64-.76,1.43-.82,1.88-.15,3.32.24,4.54-1.67.92-1.43.95-7.8.32-9.38-.84-2.1-3.23-1.98-5.06-2.17.39-.62,1.77-.49,2.48-.41Z"/>
  <path class="cls-10" d="M48.51,68.8c.18,7.17-.26,14.32-.41,21.48h-.83c.08-7.15.46-14.37.62-21.49.12-.26.43-.29.61-.41v.41Z"/>
  <path class="cls-10" d="M12.57,20.88l.83.83c-6.32-.34-5.54,3.33-4.54,8.26l-.83.41c-.26-1.22-.78-3.68-.78-4.8-.01-3.17,2.33-4.79,5.32-4.71Z"/>
  <path class="cls-1" d="M119.16,74.59h-.41c-.07-1.85.08-3.72,0-5.57-.04-.87-1.02-3.02,0-3.52.87,2.85.24,6.11.41,9.09Z"/>
  <path class="cls-10" d="M48.1,98.96h-.41c-.17-2.17-.4-4.28-.41-6.61h.41c0,2.12.34,4.37.41,6.61Z"/>
  <path class="cls-11" d="M119.16,45.67c.41,0,.83,0,1.24,0-1.83.42-1.3,2.02-1.24,3.72h-.83c-.05-1.15.03-2.31-.02-3.46.09-.5.68-.17.85-.25Z"/>
  <path class="cls-15" d="M93.54,76.24c-.8-1.25-.36-3.37-.41-4.96.76,1.23.41,3.4.41,4.96Z"/>
  <path class="cls-11" d="M122.88,51.04c-.71-.08-2.08-.21-2.48.41-.27-.03-.55,0-.83,0-.08-.26-.39-.6-.41-.83,1.17.16,2.87-.44,3.72.41Z"/>
  <path class="cls-8" d="M119.16,49.39c.01.41-.05.84,0,1.24.03.23.33.56.41.83-.41-.01-.83.02-1.24,0-.03-.69.03-1.38,0-2.07h.83Z"/>
  <path class="cls-8" d="M48.1,90.29c-.02.9-.41,1.92-.41,2.07h-.41c0-.69,0-1.38,0-2.07h.83Z"/>
  <path class="cls-7" d="M100.57,58.48h11.16s2.48,41.73,2.48,41.73c-.55.1-1.11.25-1.65.41-.13.04-.29-.04-.41,0-.71.22-1.88.7-2.48.83-2.24.46-4.9.6-7.13-.02-.3-.08-.59-.89-1.13-1.22,3.9.32,8.39,1.23,12-.68l-2.5-39.39c-1.18.52-2.48-.82-3.1-.82-.5,0-1.01.68-1.68.79-1.61.28-3.5.42-5.13.44l.42,39.66c-.53-.32-.76-.5-1.24-.83v-40.9h.41Z"/>
  <path class="cls-7" d="M41.49,58.48l.24,40.92c-.44,1.34-3.96,1.95-5.38,2.07-1.59.14-6.91-.2-8.07-1.07l-.41-.6c.51.07,1.19-.1,1.65,0,.64.14,1.31.68,2.32.78,2.65.26,5.95.25,8.42-.78.15-.06.53.13.77-.04l-.35-40.45h-9.92s-2.89,40.49-2.89,40.49h-.41c-.06-.36.02-.84,0-1.24-.27-6.14.83-15.61,1.24-22.1.38-5.97,1.43-11.97,1.24-17.98h11.57Z"/>
  <path class="cls-6" d="M126.59,29.56h-.41c.15-.69-.1-1.72,0-2.48-36.19,5.73-74.1,5.86-110.3,0,.11.89-.17,2.07,0,2.89h-.41c-.25-1.06-.44-2.2-.41-3.31,7.3,1.2,15.35,2.24,22.72,2.89,17.21,1.51,34.59,1.17,51.86.84l8.45-.84c.69-.02,1.38.03,2.07,0,8.99-.38,18.01-1.83,26.85-3.31.16,1.17-.16,2.2-.41,3.31Z"/>
  <path class="cls-13" d="M92.72,58.48c0,.14,0,.28,0,.41.03,1.37-.02,2.76,0,4.13-10.6,0-21.21,0-31.81,0l-11.98-.41c.02-1.23-.03-2.49,0-3.72,0-.14,0-.28,0-.41,1.3-.08,2.64.11,3.94.02.53-.04,1.08-.43,1.22-.43h34.29c.91,0,2.99.85,4.34.41ZM49.75,58.87v3.32h42.17v-3.32h-42.17Z"/>
  <path class="cls-3" d="M15.05,26.67c-.03,1.1.16,2.24.41,3.31.64,2.74,2.87,8.57,6.01,9.07l97.91.04c4.15-.36,6.41-5.95,7.21-9.52.25-1.1.58-2.14.41-3.31.17.06.54-.12.78.03-.27,4.08-2.25,10.13-5.72,12.6-.84.59-.94.39-1.67.59l-72.71.41c-8.01-.03-17.16.58-25.01.01-3.63-.26-5.83-4.18-7.1-7.36-.5-1.23-1.84-5.44-.94-6.29.26-.01.38.41.41.41Z"/>
  <path class="cls-2" d="M98.09,29.56l-8.45.84c-17.28.33-34.65.67-51.86-.84v-.83c19.08,1.65,37.78,1.24,56.87.57,1.03-.04,2.2.3,3.44.26Z"/>
  <path class="cls-2" d="M100.57,58.48c-.23-1.25.63-.8,1.43-.83,2.26-.08,7.17-.37,9.11,0,.56.11.73.12.95.7.87,2.33.32,5.69.5,8.18.76,10.56,2.02,21.25,2.49,31.81.11,2.53-.48,1.49-.84,1.86-.06.06.19.68-.29.83-.42.14-1.05-.1-1.36,0v-.41c.54-.17,1.1-.31,1.65-.41l-2.48-41.73h-11.16Z"/>
  <path class="cls-2" d="M112.55,101.03c-.89.28-1.86,1.19-2.89.41.6-.12,1.77-.61,2.48-.83l.41.41Z"/>
  <path class="cls-7" d="M114.2,105.57c.87-.04,1.77-1.06,2.07.62.2,1.15.2,5.83.03,7.03-.1.73-.67.69-.86,1.02-5.6,1.41-10.86,1.59-16.53.41h-.41c.31-2.57-.43-6.03,0-8.48.09-.53.3-.84.82-1.02,4.92,1.28,9.89.66,14.87.41ZM99.33,107.22c-.14,2.16.06,4.4.04,6.57,5.43,1.35,11.08,1.18,16.44-.41.05-1.9.1-3.84.04-5.74-.01-.41.02-.83,0-1.24-5.46.09-10.87.6-16.32-.42-.39-.02-.19.86-.21,1.25Z"/>
  <path class="cls-3" d="M48.93,58.48c.02-.27-.03-.55,0-.83,14.62-.39,29.2-.53,43.8,0,.02.27-.02.55,0,.83-1.35.44-3.42-.41-4.34-.41h-34.29c-.14,0-.69.39-1.22.43-1.3.1-2.64-.09-3.94-.02Z"/>
  <path class="cls-1" d="M120.4,39.47c-.31.09-.8.65-1.4.44-23.77-.11-47.55.05-71.31-.03l72.71-.41Z"/>
  <path class="cls-11" d="M79.08,51.87c-1.14-.35-1.25-5.79-.21-6.61h15.08v6.61c-.41.02-.83-.01-1.24,0-.43-.69-1.57-.41-2.27-.42-3.03-.04-6.07-.03-9.1,0-.7,0-1.84-.26-2.27.42ZM93.13,46.08h-14.05v4.96h14.05v-4.96Z"/>
  <path class="cls-2" d="M27.44,98.55l-.82,1.24c.75-11.21,1.7-22.45,2.47-33.67.09-1.26-.42-7.26.83-7.64.19,6-.85,12.01-1.24,17.98-.42,6.48-1.51,15.95-1.24,22.1Z"/>
  <path class="cls-2" d="M43.14,105.16c-5.74,1.06-11.61.92-17.35,0v9.09c4.77,1.01,12.49,1.85,16.94-.41.17-.08.75.25.85-.26l-.43-8.42c.21.08.75-.25.85.26-.32,2.4,1.74,8.06-.95,9.35s-16.65,1.97-17.87-.51c-.51-1.02-.1-8.83.6-9.33,4.22-.08,8.41.35,12.65.25,1.95-.04,2.53-.91,4.73-.02Z"/>
  <path class="cls-7" d="M100.57,45.67h9.92s.41,6.2.41,6.2h-10.33c-.02-.27.02-.55,0-.83-.15-1.72.11-3.62,0-5.37ZM109.66,46.5h-8.26v4.54h8.68l-.41-4.54Z"/>
  <path class="cls-7" d="M35.71,45.67c1.79.01,3.58,0,5.37,0,.1,2.05-.07,4.14,0,6.2h-9.92c-.19-1.05-.17-6.22.41-6.61h.41c.82.75,2.55.41,3.72.41ZM40.25,46.5h-8.26l-.41,4.54h8.68v-4.54Z"/>
  <path class="cls-10" d="M27.44,99.79h.41l.41.6c1.17.87,6.48,1.21,8.07,1.07,1.42-.12,4.94-.73,5.38-2.07l-.24-40.92.76,41.45c-.9,2.64-12.12,2.38-14.15,1.06-.59-.38-.55-.6-.65-1.2Z"/>
  <path class="cls-11" d="M49.34,51.87c-.25-.03-.54.09-.79-.03-.42-.53-.41-6.27.02-6.54,4.53.26,9.77-.52,14.21-.06.6.06,1.05.09,1.43.64-.09.4-.86.19-1.24.2-4.66.22-9.39-.16-14.05,0v4.96c4.47-.21,9.19.28,13.64,0v.41c-3.64.04-7.3-.05-10.95,0-.7,0-1.84-.26-2.27.42Z"/>
  <path class="cls-10" d="M37.77,28.73v.83c-7.37-.65-15.42-1.69-22.72-2.89-.03,0-.15-.43-.41-.41.64-.61,1.05-.47,1.84-.42,6.61.39,14.34,2.3,21.3,2.9Z"/>
  <path class="cls-1" d="M92.72,67.98v.41h-44.2c.64-.41.64-.37,1.4-.44,13.53-1.27,29.06,1,42.8.03Z"/>
  <path class="cls-1" d="M60.91,63.02c10.6,0,21.21,0,31.81,0l-43.38.41c.43-.68,1.57-.41,2.27-.42,3.1-.04,6.21,0,9.3,0Z"/>
  <path class="cls-2" d="M127.01,26.25c-8.84,1.48-17.87,2.92-26.85,3.31-.23-1.28.64-.76,1.43-.82,3.7-.27,7.44-.46,11.12-.88,4.04-.46,9.58-1.96,13.35-2,.65,0,.7.3.95.39Z"/>
  <path class="cls-1" d="M100.15,99.38s-.4.72-.41.21c.11-12.94-.14-25.9,0-38.84,0-.7-.26-1.84.42-2.27v40.9Z"/>
  <path class="cls-2" d="M99.33,104.75c1.47-.13,2.58.39,3.91.43,3.24.09,6.41-.02,9.64-.31.79-.07,1.52-.6,1.32.71-4.98.25-9.95.87-14.87-.41v-.41Z"/>
  <path class="cls-10" d="M115.44,114.25l.4.37c-5.27,1.6-11.69,2.06-16.92.04,5.66,1.18,10.93,1,16.53-.41Z"/>
  <path class="cls-3" d="M48.93,58.89c-.03,1.23.02,2.49,0,3.72l11.98.41c-3.09,0-6.2-.05-9.3,0-.7,0-1.84-.26-2.27.42-1.24-.29-1.11-3.77-.41-4.54Z"/>
  <path class="cls-2" d="M31.57,45.26l9.5-.41c.02.27-.02.55,0,.83-1.79,0-3.58.01-5.37,0l-3.72-.41h-.41Z"/>
  <path class="cls-1" d="M92.72,51.87c-4.53.13-9.1-.1-13.63,0,.43-.68,1.57-.41,2.27-.42,3.03-.03,6.07-.04,9.1,0,.7,0,1.84-.26,2.27.42Z"/>
  <path class="cls-1" d="M62.56,51.45c-.04.51-.62.4-1.01.43-3.01.24-9.31.33-12.21-.02.43-.68,1.57-.41,2.27-.42,3.65-.04,7.31.04,10.95,0Z"/>
  <path class="cls-1" d="M41.08,51.87c-.05.57-.61.38-1.01.43-2.79.35-6.24-.29-9.11-.02-.6-.12.21-.39.21-.42h9.92Z"/>
  <path class="cls-1" d="M110.89,51.87c-.04.55-.6.4-1.01.43-2.2.15-6.19.24-8.31,0-.4-.04-.97.12-1.01-.43h10.33Z"/>
  <rect class="cls-10" x="100.98" y="44.84" width="9.5" height=".41"/>
  <path class="cls-10" d="M99.33,104.75v.41c-.52.18-.73.49-.82,1.02-.43,2.44.3,5.9,0,8.48-.69-1.35-.66-9.28.07-9.86.24-.16.5-.04.75-.06Z"/>
  <path class="cls-3" d="M92.72,63.02c-.02-1.37.03-2.76,0-4.13,1.26.5,1.28,3.59,0,4.13Z"/>
  <path class="cls-10" d="M100.57,51.04l-.83-.21c.9-1.64-.14-3.79.83-5.16.11,1.75-.15,3.65,0,5.37Z"/>
  <path class="cls-11" d="M62.97,51.04v-.41c0,.05.39.1.41.2l-.41.21Z"/>
  <path class="cls-12" d="M101.39,100.2l-.42-39.66c1.64-.02,3.53-.16,5.13-.44.67-.12,1.19-.8,1.68-.79.62,0,1.92,1.35,3.1.82l2.5,39.39c-3.61,1.91-8.1,1-12,.68Z"/>
  <path class="cls-5" d="M40.25,99.79c-2.47,1.03-5.77,1.04-8.42.78-1.01-.1-1.68-.64-2.32-.78.53-.41,1.23-.02,1.16-.93-.11-1.44-.51-2.6-.34-4.24.66-6.33,1.71-12.78,2.28-19.2.25-2.76-.2-5,.32-7.95.43-2.45.92-5.78,4.18-5.18,1.35.25,1.81,5.49,1.9,6.73.55,7.99.51,16.79.67,24.85.04,1.9-1.05,4.24.57,5.92Z"/>
  <path class="cls-14" d="M27.86,99.79l2.89-40.49h9.92s.35,40.45.35,40.45c-.24.17-.62-.02-.77.04-1.62-1.68-.53-4.02-.57-5.92-.16-8.06-.12-16.86-.67-24.85-.09-1.24-.55-6.48-1.9-6.73-3.26-.6-3.75,2.73-4.18,5.18-.52,2.95-.07,5.19-.32,7.95-.57,6.42-1.62,12.87-2.28,19.2-.17,1.64.23,2.8.34,4.24.07.9-.63.52-1.16.93-.47-.1-1.14.07-1.65,0Z"/>
  <path class="cls-13" d="M15.88,29.97c-.16-.82.11-2,0-2.89,36.2,5.86,74.11,5.73,110.3,0-.1.76.15,1.79,0,2.48-.06.29-.71.88-.83,1.24-7.27-.55-14.45.81-21.64,1.7-20.08,2.5-46.41,1.75-66.96.76-4.27-.21-7.96.33-12.21-1.01-.94-.3-1.47-1.22-2.7-1.43-1.69-.28-3.49.11-5.14.39-.12-.36-.77-.96-.83-1.24Z"/>
  <path class="cls-7" d="M126.59,29.56c-.8,3.57-3.06,9.16-7.21,9.52l-97.91-.04c-3.14-.5-5.37-6.33-6.01-9.07h.41c.06.28.71.88.83,1.24,1.3,3.93,1.67,7.09,6.47,7.28,10.5.41,22.31.08,32.96.17,21.63.2,43.4.08,64.98-.33,2.23-.9,3.55-5.43,4.24-7.54.12-.36.76-.95.83-1.24h.41Z"/>
  <rect class="cls-5" x="49.75" y="58.87" width="42.17" height="3.32"/>
  <path class="cls-9" d="M115.85,107.64c.06,1.9,0,3.84-.04,5.74-5.36,1.59-11.01,1.76-16.44.41.01-2.17-.18-4.41-.04-6.57.88.59,1.61.77,2.67.85,4.59.33,9.3-.18,13.86-.43Z"/>
  <path class="cls-14" d="M99.33,107.22c.03-.39-.18-1.27.21-1.25,5.44,1.02,10.86.51,16.32.42.02.41-.01.83,0,1.24-4.56.26-9.27.76-13.86.43-1.06-.08-1.78-.26-2.67-.85Z"/>
  <path class="cls-13" d="M43.14,105.16l.43,8.42c-.09.5-.68.17-.85.26v-6.61c-5.39,1.07-10.88,1.48-16.11-.41l-.42,7.02c5.64,1.24,10.88.79,16.53,0-4.45,2.27-12.17,1.43-16.94.41v-9.09c5.74.92,11.62,1.06,17.35,0Z"/>
  <polygon class="cls-14" points="109.66 46.5 110.07 51.04 101.39 51.04 101.39 46.5 109.66 46.5"/>
  <polygon class="cls-14" points="40.25 46.5 40.25 51.04 31.57 51.04 31.99 46.5 40.25 46.5"/>
  <path class="cls-4" d="M35.71,45.67c-1.16,0-2.9.33-3.72-.41l3.72.41Z"/>
  <path class="cls-12" d="M125.35,30.8c-.69,2.11-2,6.64-4.24,7.54-21.58.41-43.34.53-64.98.33-10.66-.1-22.46.24-32.96-.17-4.81-.19-5.18-3.35-6.47-7.28,1.66-.28,3.45-.67,5.14-.39,1.24.2,1.76,1.13,2.7,1.43,4.25,1.34,7.94.8,12.21,1.01,20.55,1,46.88,1.74,66.96-.76,7.19-.9,14.37-2.25,21.64-1.7Z"/>
  <path class="cls-9" d="M42.73,113.83c-5.65.79-10.88,1.24-16.53,0l.42-7.02c5.23,1.89,10.72,1.48,16.11.41v6.61Z"/>
</svg>