<?xml version="1.0" encoding="UTF-8"?>
<svg id="_水" data-name="水" xmlns="http://www.w3.org/2000/svg" viewBox="0 0 100 100">
  <defs>
    <style>
      .cls-1 {
        fill: #000000;
      }
    </style>
  </defs>
  <path class="cls-1" d="M49.05,2.67c6.43-.53,8.96,3.26,12.32,7.76,8.56,11.47,22.37,32.06,24.62,46.07,3.02,18.77-10.61,36.57-28.88,40.18-25.93,5.13-49.6-18.74-42.15-44.62,3.73-12.95,14.32-28.85,22.28-39.78,3.21-4.41,5.75-9.11,11.8-9.61ZM49.35,10.67c-.81.14-1.43.83-1.96,1.43-4.76,5.4-10.1,14.03-13.93,20.26-9,14.65-18.42,30.96-5.48,46.72,17.13,20.86,52.03,7.63,50.36-19.25-.65-10.48-11.3-26.95-17.22-35.76-2.46-3.66-5.79-8.94-8.66-12.13-.92-1.02-1.66-1.53-3.12-1.28Z"/>
</svg>