<?xml version="1.0" encoding="UTF-8"?>
<svg id="_圖層_6" data-name="圖層 6" xmlns="http://www.w3.org/2000/svg" viewBox="0 0 100 100">
  <defs>
    <style>
      .cls-1 {
        fill: #000000;
      }
    </style>
  </defs>
  <path class="cls-1" d="M49.24,6.05c2.19-.2,4.29.58,6,1.86,5.96,6.03,11.29,12.47,17.09,18.51,1.6,1.67,3.29,3.05,4.93,4.5,2.53,2.24,4.03,6.22,5.36,9.22,4.46,10.07,8.79,20.19,13.01,30.31.54,1.3,1.16,2.41,1.43,3.72,1.69,8.09-5,15.25-11.94,18.37-1.64.83-3.4,1.09-5.15,1.43H20.07c-9.56-1.16-20.64-11.34-16.51-21.8,3.89-9.01,7.75-18.19,11.58-27.16,1.28-2.99,2.44-6.14,4-9.01.92-1.68,2.13-2.41,3.5-3.65,6.89-6.19,12.15-13.28,18.09-20.09,1.48-1.7,2.96-3.74,4.93-4.93.32-.19,1.29-.78,1.57-.86.19-.05.41-.1.57-.14.47-.12.82-.08,1.29-.14.05,0,.09-.14.14-.14ZM48.45,14.34l-1.43,1.64c-4.98,5.67-9.5,11.82-14.73,17.44-1.07,1.15-2.46,2.95-3.79,3.79-.08.05-.14.16-.21.21l6.93,10.37,16.94-13.51-3.72-19.94ZM57.03,20.49c.02.21-.03.45,0,.64.22,1.32.61,2.69.86,4,.52,2.75.97,5.46,1.57,8.15.07.29.05.67.14,1,.04.13,1.1,1.2,1.29,1.43.93,1.13,1.93,2.43,2.86,3.57.15.18.35.33.5.5h.29l5.22-5.5-6.43-6.72-6.29-7.08ZM74.4,39.94l-6.22,6.51c-.08.29.13.37.14.43.99,4.29,2.19,8.49,3.29,12.72,2.27,8.72,4.5,17.42,6.72,26.16.02.09.26.29.14.57l.36.21c.26-.28.76-.09,1.14-.14.46-.07,1.25-.41,1.72-.57,3.07-1.1,6.77-3.94,7.93-7.08.09-.24.09-.61.14-.86.01-.06.14-.09.14-.14.12-.84-.06-1.99-.29-2.72-.41-1.33-1.17-2.72-1.72-4-3.4-7.99-6.83-16.04-10.29-24.02-.94-2.17-1.74-4.29-2.86-6.43-.1-.19-.12-.49-.36-.64ZM71.04,86.54c-.02-.16.03-.35,0-.5-.08-.37-.33-.91-.43-1.29-2.95-11.56-5.99-23.08-9.01-34.6-.26-1-.47-2-.71-3-1.64-1.75-3.07-3.82-4.58-5.58-.09-.11-.6-.63-.64-.64-.36-.1-.59.36-.86.57-5.36,4.4-11.03,8.62-16.44,13.01-.38.31-.69.64-1.07.93-2.32,9.99-5.22,19.76-7.58,29.74-.03.12-.27.62-.29.71-.03.2.02.44,0,.64h41.6ZM23.86,43.8c-.48-.06-.36.34-.43.5-.65,1.45-1.25,2.85-1.86,4.29-3.46,8.18-7.01,16.47-10.44,24.73-.33.8-.87,1.63-1,2.43-.04.22.03.49,0,.71-.02.12-.22.32-.14.71.01.05.14.09.14.14.03.22-.04.5,0,.71,0,.05.13.09.14.14.14.66.25.96.57,1.57,1.45,2.77,5.07,5.45,8.08,6.36.74.22,1.39.18,2.14.29.05,0,.23.24.57.14.07-.02.34-.44.36-.5.17-.64.26-1.35.43-2,2.59-9.74,5.16-19.5,7.58-29.31.04-.17.09-.37.14-.57.02-.09.24-.23.14-.57-.21-.11-.23-.33-.29-.43-1.8-2.97-3.97-5.88-5.86-8.86-.1-.17-.36-.22-.29-.5Z"/>
</svg>