<?xml version="1.0" encoding="UTF-8"?>
<svg id="_圖層_2" data-name="圖層 2" xmlns="http://www.w3.org/2000/svg" viewBox="0 0 100 100">
  <defs>
    <style>
      .cls-1 {
        fill: #e8513a;
      }
    </style>
  </defs>
  <path class="cls-1" d="M52.94,1.87c.37-.04,1.05-.04,1.41,0,.06,0,.1.15.16.16.19.03.44-.04.63,0,.06.01.38.28.47.31s.23-.04.31,0c.87.38,2.25,1.83,2.58,2.74.03.09-.03.22,0,.31.02.06.14.1.16.16.04.13-.03.32,0,.47.01.06.15.1.16.16.07.47.05,1.54,0,2.03,0,.06-.15.1-.16.16-1.31,10.33-.24,17.19,5.48,25.67.25.37.5.9.78,1.25.16.19.38.36.55.55l.39-.55c.27-.67.23-1.22.31-1.88,0-.06.15-.1.16-.16.03-.3.03-.8,0-1.1,0-.06-.15-.1-.16-.16-.07-.55-.04-1.04-.16-1.57-.03-.12-.3-.69-.31-.78-.04-.28-.04-.97,0-1.25,0-.06.14-.1.16-.16.03-.14-.04-.34,0-.47.02-.06.14-.09.16-.16.06-.17.05-.45.16-.63.38-.63,1.47-1.7,2.11-1.96.09-.03.22.03.31,0,.06-.02.1-.14.16-.16.13-.04.32.03.47,0,.06-.01.1-.15.16-.16.28-.04.97-.04,1.25,0,.06,0,.1.14.16.16.14.03.34-.04.47,0,.06.02.09.13.16.16.87.32,1.51.94,2.11,1.64.54.63,1.06,1.5,1.57,2.19,4.56,6.28,8.1,13.22,10.17,20.66,1.75,6.3,2.41,13.19.94,19.88-2.69,12.22-12.15,22.76-24.34,26.85-19.27,6.46-41.06-4.03-47.2-24.03-.38-1.25-.85-2.62-1.1-3.91-2.06-11.03,1.46-22.25,7.67-31.15.68-.98,1.51-2.13,2.74-2.58.09-.03.21.03.31,0,.06-.02.1-.15.16-.16.32-.06,1.39-.05,1.72,0,.06,0,.1.14.16.16.14.03.34-.04.47,0,.06.02.09.13.16.16.84.3,1.5.91,1.96,1.64.13.21.59.95.63,1.1.04.18-.03.43,0,.63.01.06.15.1.16.16.15,1.21-.15,2.7,0,3.91,0,.06.15.1.16.16.18,1,.36,2.01.78,2.97.38.88,1.41,2.34,2.27,2.74.06.03.1.13.16.16.08.03.21-.03.31,0,.06.02.1.15.16.16.21.04.88.04,1.1,0,.06-.01.09-.14.16-.16.09-.03.22.03.31,0,.07-.02.21-.24.31-.31.04-.03.12.02.16,0,.13-.09.47-.42.55-.55.02-.03-.02-.12,0-.16.06-.11.29-.4.31-.47.04-.13-.03-.33,0-.47.01-.06.15-.1.16-.16.04-.26.03-.83,0-1.1-.02-.14-.28-.77-.31-.94-.63-3.05-1.31-5.98-1.88-9.08-1.26-6.91-1.17-13.39,1.72-19.72s8.7-11.56,15.73-13.07c.23-.05.89-.29,1.1-.31ZM50.2,11.42c-.38-.04-.61.31-.86.47-3.35,2.1-5.75,5.51-6.81,9.31-1.19,4.27-.84,9.14,0,13.46.6,3.1,1.56,6.08,2.03,9.24,0,.06.15.1.16.16.08.78.08,2.35,0,3.13,0,.06-.15.1-.16.16-.13.84-.18,1.52-.47,2.35-3.67,8.75-15.39,9.15-19.88.78l-.63-.7-.47,1.17c-4.48,11.66-1.17,24.98,9,32.95,15.64,12.33,39.54,5.36,45.47-14.17,1.67-5.51,1.57-10.15.31-15.81-1.02-4.58-2.78-9.16-5.01-13.31-.06-.11-.32-.55-.39-.55-.17.23-.38.47-.55.7-1.34,1.83-2.71,2.77-4.93,3.21-.06.01-.1.15-.16.16-.57.08-2.23.07-2.82,0-.06,0-.1-.15-.16-.16-.19-.03-.44.04-.63,0-.3-.06-1.07-.47-1.41-.63-2-.92-3.27-2.82-4.46-4.62-3.75-5.64-6.53-11.86-7.2-18.31-.28-2.68-.11-5.52-.16-8.3l.16-.7Z"/>
</svg>