<?xml version="1.0" encoding="UTF-8"?>
<svg id="_圖層_3" data-name="圖層 3" xmlns="http://www.w3.org/2000/svg" viewBox="0 0 100 100">
  <defs>
    <style>
      .cls-1 {
        fill: #4caf72;
      }
    </style>
  </defs>
  <path class="cls-1" d="M83.63,53.27c.02.17-.03.38,0,.54.01.06.14.09.15.15.31,1.31.61,2.99.46,4.45,0,.06-.14.1-.15.15-.1.66-.11,1.21-.31,1.84-1.4,4.53-5.93,7.86-10.05,9.75-.18.08-.64.19-.69.38-.04.16.03.43,0,.61-.19,1.04-.62,2.22-1.07,3.22-1.93,4.2-5.93,7.11-10.13,8.67.08.25-.12.29-.15.38-1.03,2.84-3.02,5.1-5.07,7.37-1.89,2.1-4.02,4.62-6.52,5.91-3.45,1.1-6.65-.5-8.21-3.76-.22-.6-.22-1.1-.31-1.69-.12-.81-.18-1.8-.31-2.61-.06-.43-.03-.97-.15-1.38-.07-.26-.58-1.41-.77-1.69-.11-.16-.36-.49-.46-.61-.49-.61-1.45-1.25-2.07-1.61-1.86-1.09-4.02-1.8-5.83-3.07-2.5-1.76-4.11-3.78-4.83-6.68-.26-1.06-.46-2.3-.31-3.53.04-.3.22-1,.31-1.38.01-.06.24-.15.15-.46-.22-.15-.49-.41-.69-.54-4.1-2.59-6.73-5.46-7.6-10.36-.01-.06-.15-.1-.15-.15-.13-1.04.09-2.31,0-3.38-.14-.1-.25-.3-.38-.38-.04-.02-.12.02-.15,0-2.88-1.86-5.18-3.72-6.06-7.14-.05-.19-.29-.77-.31-.92-.08-.62.06-1.36,0-2-.1-.21-.31-.19-.38-.23-.41-.23-.72-.52-1.07-.77-5.14-3.57-7.42-9.53-4.07-15.12l1.38-1.77c-.08,0-.18.03-.23,0-.71-.4-2.23-2.49-2.53-3.15-.09-.2-.42-.75-.46-.92-.05-.2-.11-.44-.15-.61-1.02-4.16,2.07-7.58,5.3-9.75,2.16-1.21,4.49-2.4,6.75-3.22,2.85-1.04,5.63-1.68,8.44-2.3,9.83-2.17,20.88-2.93,31.62-2.46,7.49.33,15.38,1.51,22.26,3.38,4.85,1.31,14.21,4.37,16.35,9.75.3.76.34,1.53.46,2.3,0,.06.15.1.15.15.03.24.03.68,0,.92,0,.06-.15.1-.15.15-.04.29.05.65,0,.92-.06.33-.49.91-.46,1.38l-1.69,2.46.31.92c.26,1.55.64,3.18.46,4.91,0,.06-.14.1-.15.15-.04.24.04.53,0,.77-.1.58-.53,1.53-.77,2.15-.9,2.33-2.39,3.8-4.37,5.3-.14.1-.25.27-.38.38v.15c.23.12.24.34.31.46.44.79.69,1.26.92,2.15.27,1.05.49,2.47.31,3.68,0,.05-.11.45-.15.61-.65,2.63-2.67,4.67-4.83,6.22-.36.26-.86.72-1.23.92-.07.04-.2-.03-.23,0ZM43.95,10.29c-7.17.28-14.78,1.41-21.34,3.22-2.85.79-7.42,2.21-9.82,4.14-.27.22-1.23,1.17-1.15,1.46.17.08.13.26.15.31.11.19.94.99,1.15,1.15,1.93,1.5,5.6,2.71,7.98,3.38,5.05,1.41,11.13,2.55,16.58,2.92,13.79.91,27.75.63,40.37-2.61,2.83-.73,6.9-1.92,9.36-3.84.17-.13.76-.7.84-.84.02-.03-.02-.11,0-.15.08-.18.24-.28.15-.61-.03-.1-1.27-1.31-1.46-1.46-1.59-1.24-4.5-2.26-6.45-2.92-6.9-2.31-13.88-3.36-21.49-3.84-4.76-.3-9.94-.5-14.89-.31ZM86.85,28.87c-.05-.05-.43.11-.54.15-8.51,3.3-17.89,4.93-27.32,5.37-11.69.54-23.63.06-34.38-2.15-3.49-.72-6.22-1.37-9.67-2.76-.12-.05-.34.08-.46-.15l-1.77,1.61c0,.31-.4.71-.46.92-.04.13.03.32,0,.46-.03.11-.24.23-.15.61.01.06.14.09.15.15.06.26.07.64.15.92,1.47,2.5,4.22,3.68,6.68,4.83.18.08.54.14.77.31.56.4.92.98,1.15,1.61.02.06.14.09.15.15.03.13-.03.32,0,.46.01.06.15.1.15.15.04.25.04.83,0,1.07,0,.06-.14.09-.15.15-.03.14.03.33,0,.46-.01.05-.43.87-.46.92-.08.12-.74.79-.84.84-.07.04-.2-.03-.23,0v.23c.3.25.37.6.69.84,3.32,2.51,7.24,3.55,11.05,4.45,3.29.78,7.12,1.58,10.59,1.84,10.21.76,20.66.26,29.93-2.15,3.16-.82,6.41-1.73,9.21-3.84.58-.43.72-.54,1.15-1.15.13-.19.34-.37.46-.61.17-1-.31-1.45-1-2.07-.3-.1-.55.23-.77.31-7.56,2.72-17.37,4-25.79,4.3-2.09.07-4.2-.06-6.29,0-.14-.26-.41-.1-.61-.15-.05-.01-.87-.43-.92-.46-.57-.38-1.08-1.14-1.3-1.77-.02-.06-.14-.09-.15-.15-.03-.13.03-.32,0-.46-.01-.06-.15-.1-.15-.15-.03-.19-.03-.58,0-.77,0-.06.14-.09.15-.15.03-.19-.04-.44,0-.61.04-.2.48-.65.46-.92l1.46-1.3.92-.31c9.88.09,19.36-.73,28.09-3.38,2.7-.82,5.06-1.68,7.37-3.38,1.29-.94,2.07-1.54,2.53-3.15.02-.06.14-.1.15-.15v-1ZM48.63,88.42c.26.06.3-.1.46-.23,2.63-2.19,5.39-5.87,6.45-8.9.17-.5.3-.95.61-1.38s.81-.58,1.15-1l.31-.15c2.55-.64,5.2-1.95,6.83-4.07.76-.99.99-1.42,1.23-2.61.16-.78.17-1.67.31-2.46.03-.19-.04-.43,0-.61.01-.06.14-.09.15-.15.03-.1-.03-.22,0-.31.03-.07.28-.57.31-.61.12-.17.98-1.03,1.15-1.15.5-.33,1.19-.41,1.69-.61,1.46-.6,3.22-1.43,4.45-2.3.21-.15.34-.49.61-.46,1.11-1.09,2-1.77,2.38-3.3.02-.06.14-.1.15-.15.05-.25.04-.96,0-1.23-.03-.21-.07-.26-.23-.38-.19.11-.47.11-.61.15-5.44,1.79-11.33,2.62-17.34,3.07-8.08.6-16.1.33-23.79-.92-2.27-.37-4.56-.96-6.75-1.53l-1.77-.46c-.06.6.33,1.12.61,1.61,1.85,3.15,5.65,4.57,8.83,5.6.55.18,1.21.3,1.69.61.62.41.95,1.17,1.3,1.77l.15.46v1.53c-.22.2-.22.63-.31.92-.02.07-.24.2-.31.31-.02.04.02.12,0,.15-.4.56-.98.92-1.61,1.15-.06.02-.09.14-.15.15-.13.03-.32-.03-.46,0-.06.01-.1.15-.15.15-.23.03-.69.03-.92,0-.06,0-.1-.14-.15-.15-.21-.03-.47.02-.69,0,.05.35-.07.83,0,1.15.01.05.26.36.31.46.8,1.54,2.24,2.1,3.76,2.84.77.37,1.63.77,2.46,1.23,3.87,2.16,6.27,4.68,7.44,8.98.13.46.41,1.25.46,1.69.04.36-.03.78,0,1.15Z"/>
</svg>